<svg width="50" height="30" viewBox="0 0 50 30" fill="none" xmlns="http://www.w3.org/2000/svg">
<path d="M25 6.25C20.7812 6.25 17.5 10.2344 17.5 15C17.5 19.8438 20.7812 23.75 25 23.75C29.1406 23.75 32.5 19.8438 32.5 15C32.5 10.2344 29.1406 6.25 25 6.25ZM28.125 19.375C28.125 19.7656 27.8125 20 27.5 20H22.5C22.1094 20 21.875 19.7656 21.875 19.375V18.125C21.875 17.8125 22.1094 17.5 22.5 17.5H23.75V13.2031H23.6719C23.5938 13.2812 23.4375 13.3594 23.3594 13.3594C23.125 13.3594 22.8906 13.2031 22.8125 13.0469L22.1094 12.0312C22.0312 11.9531 22.0312 11.7969 22.0312 11.6406C22.0312 11.4844 22.1094 11.25 22.2656 11.1719L23.5156 10.3906C23.75 10.1562 24.1406 10 24.5312 10H25.625C25.9375 10 26.25 10.3125 26.25 10.625V17.5H27.5C27.8125 17.5 28.125 17.8125 28.125 18.125V19.375ZM47.5 0H2.5C1.09375 0 0 1.17188 0 2.5V27.5C0 28.9062 1.09375 30 2.5 30H47.5C48.8281 30 50 28.9062 50 27.5V2.5C50 1.17188 48.8281 0 47.5 0ZM46.25 21.25C43.4375 21.25 41.25 23.5156 41.25 26.25H8.75C8.75 23.5156 6.48438 21.25 3.75 21.25V8.75C6.48438 8.75 8.75 6.5625 8.75 3.75H41.25C41.25 6.5625 43.4375 8.75 46.25 8.75V21.25Z" fill="#00A698"/>
</svg>
