<svg width="197" height="197" viewBox="0 0 197 197" fill="none" xmlns="http://www.w3.org/2000/svg">
<path d="M0 98.5C0 44.1208 44.1208 0 98.5 0C152.912 0 197 44.1208 197 98.5C197 152.912 152.912 197 98.5 197C44.1208 197 0 152.912 0 98.5Z" fill="#4ABC96"/>
<path d="M135.915 140.762C135.915 143.716 133.458 146.14 130.47 146.14H59.0934C56.1055 146.14 53.7152 143.716 53.7152 140.762L54.3128 35.6221C54.3128 32.6342 56.8027 30.2107 59.7573 30.2107H131.201C134.155 30.2107 136.546 32.6342 136.546 35.6221L135.915 140.762Z" fill="#B9B9BA"/>
<path d="M64.5711 156.166C64.5711 156.564 64.2391 156.863 63.8407 156.863H54.6116C54.2132 156.863 53.8812 156.564 53.8812 156.166L54.014 136.645C54.014 136.28 54.3128 135.948 54.7112 135.948H63.9735C64.3719 135.948 64.7039 136.28 64.7039 136.645L64.5711 156.166Z" fill="#B9B9BA"/>
<path d="M136.081 156.166C136.081 156.564 135.749 156.863 135.35 156.863H126.121C125.723 156.863 125.391 156.564 125.391 156.166L125.524 136.645C125.524 136.28 125.822 135.948 126.221 135.948H135.483C135.882 135.948 136.18 136.28 136.18 136.645L136.081 156.166Z" fill="#B9B9BA"/>
<path d="M137.409 140.762C137.409 143.716 134.952 146.14 132.031 146.14H60.5541C57.5662 146.14 55.2091 143.716 55.2091 140.762L55.8067 35.6221C55.8067 32.6342 58.2634 30.2107 61.1849 30.2107H132.661C135.649 30.2107 138.006 32.6342 138.006 35.6221L137.409 140.762Z" fill="#C6C5C5"/>
<path d="M66.0651 156.166C66.0651 156.564 65.7663 156.863 65.3679 156.863H56.1055C55.7072 156.863 55.4084 156.564 55.4416 156.166L55.5412 136.645C55.5412 136.28 55.8732 135.948 56.2715 135.948H65.5339C65.9323 135.948 66.2311 136.28 66.2311 136.645L66.0651 156.166Z" fill="#C6C5C5"/>
<path d="M137.541 156.166C137.541 156.564 137.209 156.863 136.811 156.863H127.582C127.183 156.863 126.852 156.564 126.885 156.166L127.018 136.645C127.018 136.28 127.349 135.948 127.748 135.948H136.977C137.375 135.948 137.707 136.28 137.707 136.645L137.541 156.166Z" fill="#C6C5C5"/>
<path d="M154.539 140.762C155.004 143.716 152.946 146.14 149.958 146.14H78.5477C75.5599 146.14 72.7712 143.716 72.3064 140.762L56.0391 35.6221C55.5412 32.6342 57.6327 30.2107 60.5873 30.2107H132.031C134.985 30.2107 137.774 32.6342 138.272 35.6221L154.539 140.762Z" fill="#B9B9BA"/>
<path d="M85.6522 156.166C85.7186 156.564 85.453 156.863 85.0546 156.863H75.7922C75.3938 156.863 75.0618 156.564 74.9954 156.166L72.0076 136.645C71.908 136.28 72.2068 135.948 72.6052 135.948H81.8343C82.2327 135.948 82.5979 136.28 82.6311 136.645L85.6522 156.166Z" fill="#B9B9BA"/>
<path d="M157.162 156.166C157.228 156.564 156.963 156.863 156.564 156.863H147.302C146.903 156.863 146.538 156.564 146.505 156.166L143.484 136.645C143.418 136.28 143.683 135.948 144.082 135.948H153.311C153.709 135.948 154.041 136.28 154.108 136.645L157.162 156.166Z" fill="#B9B9BA"/>
<path d="M156.929 140.762C157.394 143.716 155.336 146.14 152.348 146.14H80.9712C77.9833 146.14 75.1947 143.716 74.7299 140.762L58.4294 35.6221C57.9314 32.6342 59.9897 30.2107 62.9776 30.2107H134.421C137.375 30.2107 140.164 32.6342 140.629 35.6221L156.929 140.762Z" fill="#DDDDDC"/>
<path d="M146.273 129.408C146.638 131.732 145.044 133.591 142.687 133.591H86.7145C84.3906 133.591 82.1995 131.699 81.8343 129.408L69.0529 46.976C68.6877 44.6189 70.2812 42.7598 72.6383 42.7598H128.644C131.001 42.7598 133.159 44.6853 133.524 46.976L146.273 129.408Z" fill="#565453"/>
<path d="M88.0425 156.166C88.1089 156.564 87.8433 156.863 87.4449 156.863H78.1825C77.7842 156.863 77.419 156.564 77.3858 156.166L74.3647 136.645C74.2983 136.28 74.5639 135.948 74.9623 135.948H84.2247C84.6231 135.948 84.9883 136.28 85.0215 136.645L88.0425 156.166Z" fill="#DDDDDC"/>
<path d="M159.552 156.166C159.619 156.564 159.353 156.863 158.955 156.863H149.692C149.294 156.863 148.929 156.564 148.895 156.166L145.874 136.645C145.808 136.28 146.074 135.948 146.472 135.948H155.701C156.066 135.948 156.431 136.28 156.465 136.645L159.552 156.166Z" fill="#DDDDDC"/>
<path d="M127.15 53.2504C127.15 54.1136 126.42 54.8439 125.557 54.8439H79.9088C79.0125 54.8439 78.3153 54.1136 78.3153 53.2504C78.3153 52.3872 79.0125 51.6569 79.9088 51.6569H125.557C126.42 51.6569 127.15 52.3872 127.15 53.2504Z" fill="#DDDDDC"/>
<path d="M128.744 62.7783C128.744 63.6415 128.014 64.3719 127.15 64.3719H81.4692C80.606 64.3719 79.9088 63.6415 79.9088 62.7783C79.9088 61.9152 80.606 61.1848 81.4692 61.1848H127.15C128.014 61.1848 128.744 61.9152 128.744 62.7783Z" fill="#DDDDDC"/>
<path d="M130.304 72.3063C130.304 73.1695 129.607 73.8998 128.744 73.8998H83.0627C82.1995 73.8998 81.4692 73.1695 81.4692 72.3063C81.4692 71.4431 82.1995 70.7128 83.0627 70.7128H128.744C129.607 70.7128 130.304 71.4431 130.304 72.3063Z" fill="#DDDDDC"/>
</svg>
