<svg width="30" height="30" viewBox="0 0 30 30" fill="none" xmlns="http://www.w3.org/2000/svg">
<path d="M29.5312 14.75C29.5312 6.78125 22.9688 0.21875 15 0.21875C6.97266 0.21875 0.46875 6.78125 0.46875 14.75C0.46875 22.7773 6.97266 29.2812 15 29.2812C22.9688 29.2812 29.5312 22.7773 29.5312 14.75ZM13.3008 22.4844C12.9492 22.8359 12.3047 22.8359 11.9531 22.4844L5.85938 16.3906C5.50781 16.0391 5.50781 15.3945 5.85938 15.043L7.20703 13.7539C7.55859 13.3438 8.14453 13.3438 8.49609 13.7539L12.6562 17.8555L21.4453 9.06641C21.7969 8.65625 22.3828 8.65625 22.7344 9.06641L24.082 10.3555C24.4336 10.707 24.4336 11.3516 24.082 11.7031L13.3008 22.4844Z" fill="#00A698"/>
</svg>
