<svg width="40" height="40" viewBox="0 0 40 40" fill="none" xmlns="http://www.w3.org/2000/svg">
<path d="M0.625 20C0.625 30.7031 9.29688 39.375 20 39.375C30.7031 39.375 39.375 30.7031 39.375 20C39.375 9.29688 30.7031 0.625 20 0.625C9.29688 0.625 0.625 9.29688 0.625 20ZM16.25 16.25C16.25 17.6562 15.0781 18.75 13.75 18.75C12.3438 18.75 11.25 17.6562 11.25 16.25C11.25 14.9219 12.3438 13.75 13.75 13.75C15.0781 13.75 16.25 14.9219 16.25 16.25ZM29.375 18.2031L28.5938 17.5781C27.4219 16.5625 25 16.5625 23.8281 17.5781L23.125 18.2031C22.4219 18.8281 21.4062 18.2812 21.5625 17.4219C21.875 15.3906 24.2188 14.1406 26.25 14.1406C28.2031 14.1406 30.625 15.3906 30.9375 17.4219C31.0156 18.2812 30 18.8281 29.375 18.2031ZM10.3125 25.0781C12.7344 25.8594 16.25 26.25 20 26.25C23.75 26.25 27.1875 25.8594 29.6094 25.0781C30.4688 24.8438 31.3281 25.5469 31.1719 26.4844C30.4688 30.7812 24.6875 33.75 20 33.75C15.2344 33.75 9.45312 30.7812 8.75 26.4844C8.59375 25.5469 9.45312 24.8438 10.3125 25.0781Z" fill="#FBC907"/>
</svg>
