<svg width="373" height="402" viewBox="0 0 373 402" fill="none" xmlns="http://www.w3.org/2000/svg">
<path fill-rule="evenodd" clip-rule="evenodd" d="M229.134 111.514C228.159 110.922 227.044 110.713 225.825 110.887C223.144 111.27 220.253 113.255 217.049 116.877C217.293 114.962 217.641 112.977 218.094 110.992C218.999 106.778 219.8 102.215 220.427 97.3049C221.019 92.3944 222.064 86.5436 223.561 79.7872C223.945 89.0859 228.96 93.9964 238.537 94.4492C238.815 94.484 239.129 94.5188 239.407 94.5536V103.156L238.711 102.529L229.134 111.514ZM298.926 150.624C297.637 148.291 296.314 145.923 294.851 143.554C291.473 137.982 289.383 134.047 288.582 131.748C285.761 125.096 282.662 121.335 279.318 120.534C275.348 116.355 270.229 112.524 263.89 109.007L257.97 102.633L256.229 103.713V92.882C257.064 87.4142 259.676 82.7475 264.065 78.9166C267.652 75.8867 268.696 72.2996 267.269 68.19C265.701 66.4835 263.821 66.2746 261.592 67.598L255.532 72.404L252.816 59.7272C244.144 66.7273 234.532 68.9214 223.945 66.3094C222.447 65.7174 221.124 64.8119 219.939 63.5581C218.129 61.782 216.84 59.6227 216.143 57.0804C214.437 50.7768 215.76 45.3091 220.148 40.6424C222.935 37.5428 226.278 36.7418 230.109 38.1697C232.338 38.9707 233.417 40.4334 233.348 42.5926C233.348 44.4384 232.686 45.9011 231.397 47.0156C233.208 45.727 236.761 44.334 242.054 42.9061C247.278 41.4434 253.234 41.8265 259.955 43.9857C266.676 46.1449 271.587 49.732 274.721 54.7122C275.557 57.0108 276.323 59.5879 277.055 62.4785C280.259 75.3991 282.592 84.6629 284.09 90.3048C285.274 94.7974 286.493 99.4293 287.816 104.305C293.493 113.604 301.05 115.032 310.488 108.519C312.473 110.086 314.215 112.524 315.782 115.798C317.07 118.758 317.732 121.091 317.732 122.798C317.732 130.912 314.249 138.191 307.284 144.634C304.777 146.967 301.99 148.952 298.926 150.624ZM63.778 93.3695C58.6933 90.8272 54.6186 87.3446 51.5539 82.9564C48.5588 78.5335 46.2951 73.3095 44.7976 67.1801C43.3697 61.0506 45.4593 55.5829 51.0663 50.8465C56.3599 46.3887 63.9521 44.2295 73.8428 44.3688C83.838 44.4384 91.3256 46.1449 96.3406 49.4883C101.425 52.8316 103.445 56.2794 102.4 59.8317C101.425 63.2099 99.266 65.3343 95.9575 66.1005C93.067 66.6229 90.246 67.0059 87.4251 67.1801C84.43 67.4587 81.5742 67.0408 78.8578 65.9263C76.3155 65.0557 73.9124 63.9064 71.6836 62.4785C70.0815 61.573 68.5492 60.5631 67.0865 59.5183C66.5989 61.3641 66.1462 63.2795 65.8327 65.3343C65.5193 67.3542 65.38 69.3741 65.4496 71.3244L64.37 72.2299C63.0466 71.7075 61.6884 70.5582 60.2605 68.8517C59.7381 68.2249 59.0764 67.7025 58.3102 67.389C56.2206 66.7273 54.34 66.9363 52.6335 67.9811C51.3101 70.1403 51.3798 72.4389 52.8076 74.8767C54.4445 77.628 56.4992 80.1703 58.9719 82.434C61.2008 84.5584 62.559 86.9963 63.0814 89.8172C63.36 91.0013 63.569 92.1854 63.778 93.3695Z" fill="#561519"/>
<path fill-rule="evenodd" clip-rule="evenodd" d="M103.271 167.201C101.704 168.908 99.5448 170.231 96.8283 171.102C93.4502 172.112 89.8282 172.216 85.9625 171.346C84.3605 170.963 82.6888 170.44 80.9823 169.709C80.2858 169.43 79.5544 169.082 78.8579 168.734C75.8977 167.306 74.3653 165.495 74.2608 163.336C74.1215 162.361 74.3305 161.211 74.9225 159.992C75.8628 158.077 76.9425 156.301 78.1962 154.699C79.8679 152.609 81.8182 150.763 84.0819 149.196C84.6391 148.813 85.1963 148.43 85.7884 148.082C90.1417 145.435 94.4253 144.321 98.6045 144.738C101.286 144.878 103.411 145.679 104.978 147.037C105.883 147.803 106.58 148.778 107.102 149.928C108.739 153.619 108.112 158.425 105.256 164.415C104.734 165.425 104.072 166.366 103.271 167.201ZM156.939 130.355C158.332 132.967 159.028 136.519 159.028 140.977C159.028 144.53 157.461 147.768 154.327 150.729C152.133 152.818 149.451 154.351 146.317 155.291C143.635 156.127 140.57 156.545 137.227 156.545C133.953 156.545 131.759 155.569 130.68 153.689C130.157 152.888 129.879 151.808 129.879 150.45C129.879 150.137 129.879 149.858 129.879 149.545L145.341 150.938C145.69 150.938 146.038 150.938 146.351 150.938C147.048 150.868 147.64 150.694 148.162 150.38C147.118 148.43 145.55 144.321 143.391 138.052C143.391 135.266 144.784 133.037 147.57 131.261C150.426 129.415 153.352 129.624 156.381 131.853L156.939 130.355ZM245.084 114.022L245.572 113.534L245.85 114.231C245.607 114.161 245.328 114.126 245.084 114.022ZM239.408 103.156V94.5537C239.129 94.5188 238.816 94.484 238.537 94.4492C228.96 93.9964 223.945 89.0859 223.562 79.7873C223.422 78.2897 223.353 76.7225 223.353 75.1554C223.422 72.1603 223.631 69.2 223.945 66.3095C234.532 68.9214 244.144 66.7274 252.816 59.7273L255.532 72.4041L261.592 67.598C263.821 66.2746 265.701 66.4836 267.269 68.1901C268.697 72.2996 267.652 75.8867 264.065 78.9166C259.677 82.7475 257.065 87.4142 256.229 92.882V103.713L246.547 109.703L239.408 103.156ZM214.681 213.799C213.323 213.73 212.139 213.625 211.059 213.486C210.049 213.416 209.178 213.312 208.412 213.172C207.646 213.033 206.984 212.894 206.462 212.72C203.711 211.849 202.352 210.351 202.352 208.192C202.352 199.52 205.87 194.784 212.94 193.913C214.542 193.704 216.318 193.704 218.268 193.913C220.81 194.192 223.248 194.819 225.512 195.794C228.507 201.122 227.567 207.182 222.691 214.008C219.626 214.008 216.945 213.938 214.681 213.799ZM348.136 135.684C342.703 135.614 339.116 134.534 337.409 132.445C337.096 132.027 336.852 131.504 336.712 130.843C336.608 130.355 336.538 129.798 336.504 129.171C336.434 129.101 336.399 129.067 336.329 129.067C336.12 128.892 336.016 128.057 336.016 126.629C336.016 125.305 337.096 123.947 339.255 122.589C339.464 122.38 339.708 122.241 340.021 122.101C341.066 121.44 342.32 120.778 343.747 120.151C348.519 118.027 352.245 116.982 354.996 116.982L355.763 117.365C356.285 117.574 356.564 118.375 356.564 119.733C356.564 120.186 355.136 121.37 352.245 123.285C354.091 123.877 356.215 124.609 358.618 125.549C360.847 125.549 363.111 124.748 365.444 123.181C367.812 121.405 369.31 120.29 369.972 119.838C370.564 120.081 371.225 120.325 372.026 120.534C372.514 120.917 372.793 121.823 372.793 123.285C372.793 126.42 369.798 129.345 363.807 132.027C358.305 134.465 353.22 135.684 348.553 135.684C348.414 135.684 348.275 135.684 348.136 135.684ZM95.9577 66.1005C96.2711 68.9911 96.4801 71.9513 96.5497 74.9812C96.5497 77.9066 96.3059 80.8669 95.8532 83.8271C95.2611 87.2401 93.5198 89.7476 90.5596 91.4193C87.7038 92.9168 84.6391 93.8571 81.3654 94.2402C81.2958 94.275 81.1913 94.275 81.0868 94.3099V102.285L76.6987 107.718L78.3355 110.295C77.2907 111.27 76.037 111.932 74.6787 112.245L76.1066 107.718L64.2657 100.404V93.5089C64.0915 93.474 63.9522 93.4044 63.7781 93.3696C63.5691 92.1855 63.3602 91.0014 63.0816 89.8173C62.5592 86.9963 61.2009 84.5585 58.972 82.4341C56.4994 80.1704 54.4446 77.628 52.8078 74.8767C51.3799 72.4389 51.3102 70.1404 52.6336 67.9811C54.3401 66.9363 56.2208 66.7274 58.3103 67.3891C59.0765 67.7025 59.7382 68.2249 60.2606 68.8518C61.6885 70.5583 63.0467 71.7075 64.3701 72.2299L65.4498 71.3245C65.3801 69.3742 65.5194 67.3543 65.8328 65.3343C66.1463 63.2796 66.599 61.3641 67.0866 59.5183C68.5493 60.5631 70.0817 61.5731 71.6837 62.4786C73.9126 63.9064 76.3156 65.0557 78.8579 65.9264C81.5744 67.0408 84.4301 67.4587 87.4252 67.1801C90.2461 67.006 93.0671 66.6229 95.9577 66.1005Z" fill="#F5AE8D"/>
<path fill-rule="evenodd" clip-rule="evenodd" d="M212.034 183.5L212.939 193.913C205.87 194.784 202.352 199.52 202.352 208.192C202.352 210.351 203.71 211.849 206.462 212.72C206.984 212.894 207.646 213.033 208.412 213.172C207.402 213.695 206.392 214.008 205.382 214.078C201.412 214.426 198.486 210.073 196.675 201.018C195.631 192.033 195.108 187.436 195.108 187.227C194.203 176.883 195.491 165.495 199.009 153.097C202.143 142.127 206.392 132.514 211.72 124.156C213.601 121.266 215.377 118.828 217.049 116.877C220.253 113.255 223.144 111.27 225.825 110.887C227.044 110.713 228.159 110.922 229.134 111.514L228.751 111.862L229.935 113.047C229.099 113.952 228.333 114.892 227.566 115.902C224.571 119.698 221.646 123.251 218.755 126.524C215.9 129.728 212.939 134.952 209.875 142.161C206.81 149.301 209.213 157.067 217.119 165.391L217.397 168.386C217.014 168.699 216.631 169.047 216.248 169.43C214.681 170.998 213.74 172.809 213.497 174.829H207.541V183.5H212.034ZM282.871 176.814C281.234 173.435 279.493 169.605 277.751 165.391L266.189 133.803C266.189 132.236 266.885 130.181 268.244 127.708C269.811 125.027 271.622 123.007 273.642 121.718C275.592 120.465 277.473 120.081 279.318 120.534C282.662 121.335 285.761 125.096 288.582 131.748C289.383 134.047 291.473 137.982 294.851 143.554C296.314 145.923 297.637 148.291 298.926 150.624C301.155 154.838 303.105 159.052 304.742 163.231L327.205 140.316C331.175 136.345 334.344 133.176 336.712 130.843C336.852 131.505 337.095 132.027 337.409 132.445C339.115 134.534 342.703 135.614 348.135 135.684C346.15 141.639 339.951 152.226 329.573 167.445C316.026 187.262 306.204 197.152 300.145 197.152C295.269 197.152 289.523 190.396 282.871 176.814Z" fill="#EF9E10"/>
<path fill-rule="evenodd" clip-rule="evenodd" d="M78.1962 154.699C76.9424 156.301 75.8628 158.077 74.9225 159.992C74.3304 161.211 74.1215 162.361 74.2608 163.336C74.3653 165.495 75.8976 167.306 78.8579 168.734C79.5544 169.082 80.2857 169.43 80.9823 169.709C80.3206 170.162 79.624 170.614 78.8579 171.102C73.5643 174.376 67.5741 177.231 60.9223 179.669C53.0863 182.421 45.5987 184.162 38.4593 184.824C28.8472 185.694 19.8968 184.649 11.5733 181.724C3.59805 178.973 -0.23285 172.565 0.0109374 162.535C0.0805857 159.47 0.568164 156.127 1.47365 152.505C2.37914 149.753 2.8667 148.326 2.93635 148.256C4.1901 144.529 7.81205 139.619 13.8022 133.524C20.8371 126.768 25.6432 122.101 28.1855 119.524C31.8422 115.902 35.1856 113.255 38.2503 111.619C43.6484 108.728 48.1062 109.007 51.554 112.454C53.6436 114.509 54.967 117.365 55.559 121.126C56.1511 124.644 55.9421 127.813 54.967 130.564C52.8077 136.798 49.0465 142.649 43.6484 148.186C38.1458 153.689 35.3945 156.614 35.3249 156.928C34.9418 157.903 34.8025 158.773 34.9418 159.505C34.8721 159.749 34.8721 160.306 34.9418 161.142C37.1359 161.351 45.5639 160.167 60.1561 157.624C68.4448 156.161 74.4349 155.186 78.1962 154.699ZM146.317 155.291C146.212 160.132 144.784 165.495 141.998 171.381C137.819 180.052 132.073 184.371 124.689 184.371C121.903 184.371 119.187 181.55 116.47 175.908C120.266 153.724 117.933 132.549 109.54 112.454C108.913 110.957 107.868 109.738 106.406 108.763C107.311 108.763 108.356 109.041 109.54 109.599C114.241 111.758 118.003 117.295 120.893 126.141C121.764 128.997 122.878 133.35 124.167 139.131L121.868 145.122C120.963 147.49 121.694 148.778 124.097 149.057L126.326 149.266C126.326 149.301 126.361 149.37 126.361 149.44C126.535 149.405 126.709 149.37 126.918 149.301L129.879 149.544C129.879 149.858 129.879 150.137 129.879 150.45C129.879 151.808 130.157 152.888 130.68 153.689C131.759 155.569 133.953 156.545 137.227 156.545C140.57 156.545 143.635 156.127 146.317 155.291ZM224.711 385.11C225.407 367.384 222.586 337.05 216.248 294.074C210.85 257.646 209.109 230.794 211.059 213.486C212.138 213.625 213.323 213.73 214.681 213.799L215.342 222.053H230.596L232.024 205.336H274.617C277.682 206.59 280.085 208.262 281.861 210.351C284.786 213.834 287.259 219.232 289.279 226.58C291.368 233.929 290.881 242.531 287.816 252.352C280.921 262.138 277.995 271.855 279.11 281.502C279.319 283.905 279.632 286.273 280.085 288.571C280.886 291.253 281.931 293.761 283.324 296.059C295.826 316.781 297.184 337.92 287.433 359.513C286.98 361.01 286.458 362.612 285.866 364.249V387.896C285.03 387.304 284.055 386.817 282.906 386.364C279.353 385.075 275.139 384.623 270.264 385.006C266.085 355.821 261.522 326.463 256.612 296.825C251.736 267.397 248.845 251.586 247.905 249.427C247.975 250.611 246.721 256.949 244.109 268.511C240.139 285.75 238.154 297.348 238.154 303.338C238.154 306.089 240.208 312.01 244.283 321.134C248.393 330.259 250.447 336.736 250.447 340.532C250.447 345.652 248.567 353.662 244.771 364.632C241.462 374.349 240.313 381.976 241.358 387.548H240.766C240.069 387.13 239.233 386.712 238.328 386.364C234.532 385.006 230.004 384.588 224.711 385.11Z" fill="#5762B7"/>
<path fill-rule="evenodd" clip-rule="evenodd" d="M108.948 203.351V384.901C105.152 384.832 101.774 385.319 98.883 386.364C97.5247 386.886 96.3755 387.513 95.47 388.245V389.533C93.4849 387.165 91.848 383.787 90.5595 379.503C88.2261 371.737 87.042 361.289 87.042 348.09C87.042 345.199 87.634 340.149 88.8181 332.871C89.9674 325.557 90.5595 320.96 90.5595 318.975C90.5595 310.373 88.9575 301.91 85.7882 293.482C82.5842 285.089 80.9822 274.885 80.9822 262.904C81.7832 253.641 82.1663 247.024 82.1663 243.019C79.624 255.103 74.5393 279.447 66.9123 316.119C61.0963 344.12 56.2555 367.105 52.3897 385.11C47.6882 384.657 43.6135 384.971 40.1657 386.016C38.8771 380.827 36.8572 373.652 34.1407 364.528C31.877 356.727 30.7277 348.786 30.7277 340.707C30.7277 330.502 33.1307 316.851 37.9716 299.786C42.708 282.755 45.111 272.482 45.111 268.999C45.111 264.611 44.1011 258.412 42.0811 250.402C39.9915 242.322 38.9468 235.461 38.9468 229.75C38.9468 222.715 39.1209 217.978 39.5388 215.471C40.2353 210.351 41.6284 206.312 43.718 203.351H108.948ZM224.711 385.11C230.004 384.588 234.532 385.006 238.328 386.364C239.233 386.712 240.069 387.13 240.766 387.548C241.114 387.757 241.462 388.001 241.741 388.245V401.235H203.049C202.909 400.573 202.84 399.842 202.84 398.971C202.84 395.419 204.999 392.354 209.387 389.707C213.357 387.374 218.198 385.842 223.84 385.215C224.119 385.18 224.397 385.145 224.711 385.11ZM285.866 387.896C286.04 388.001 286.179 388.14 286.353 388.245V401.235H247.626C247.487 400.573 247.418 399.842 247.418 398.971C247.418 395.419 249.612 392.354 253.965 389.707C257.97 387.374 262.776 385.842 268.453 385.215C269.045 385.145 269.672 385.041 270.264 385.006C275.139 384.623 279.353 385.075 282.906 386.364C284.055 386.817 285.03 387.304 285.866 387.896Z" fill="#1E254B"/>
<path fill-rule="evenodd" clip-rule="evenodd" d="M52.3898 385.11C52.738 385.11 53.1211 385.145 53.5042 385.215C59.1809 385.842 63.987 387.374 67.992 389.707C72.3453 392.354 74.5394 395.419 74.5394 398.971C74.5394 399.842 74.4697 400.573 74.3304 401.235H35.6035V388.245C36.5089 387.513 37.6582 386.886 39.0513 386.364C39.3995 386.259 39.7826 386.12 40.1657 386.016C43.6135 384.971 47.6882 384.657 52.3898 385.11ZM95.47 389.533V388.245C96.3755 387.513 97.5248 386.886 98.883 386.364C101.774 385.319 105.152 384.832 108.948 384.901C110.341 384.901 111.838 385.006 113.371 385.215C119.013 385.842 123.854 387.374 127.824 389.707C132.212 392.354 134.371 395.419 134.371 398.971C134.371 399.842 134.301 400.573 134.197 401.235H95.47V389.533ZM279.319 120.534C277.473 120.081 275.592 120.465 273.642 121.718C271.622 123.007 269.811 125.027 268.244 127.708C266.886 130.181 266.189 132.236 266.189 133.803L277.751 165.391C279.493 169.605 281.234 173.435 282.871 176.814C280.816 187.296 279.214 196.804 278.03 205.336H232.024L233.835 183.5H238.432V174.828H232.477C232.129 172.809 231.258 171.032 229.83 169.535C228.333 168.072 226.591 167.202 224.641 166.853V148.36H221.228V166.853C219.835 167.062 218.547 167.585 217.397 168.386L217.119 165.391C209.213 157.067 206.81 149.301 209.875 142.161C212.939 134.952 215.9 129.728 218.755 126.524C221.646 123.251 224.571 119.698 227.567 115.902C228.333 114.892 229.099 113.952 229.935 113.046L237.945 121.196L245.084 114.022C245.328 114.126 245.607 114.161 245.85 114.231L249.472 122.798L265.806 111.061L263.89 109.007C270.229 112.524 275.348 116.355 279.319 120.534Z" fill="#FBC907"/>
<path fill-rule="evenodd" clip-rule="evenodd" d="M92.7187 126.246V134.186H84.9873C85.2659 132.166 86.1714 130.355 87.7385 128.788C89.1664 127.36 90.8381 126.489 92.7187 126.246ZM103.968 134.186H96.1317V126.246C98.1168 126.559 99.8233 127.43 101.321 128.892C102.784 130.39 103.654 132.166 103.968 134.186ZM232.477 174.828H224.641V166.853C226.591 167.201 228.333 168.072 229.83 169.535C231.258 171.032 232.129 172.809 232.477 174.828ZM221.228 174.828H213.497C213.74 172.809 214.681 170.998 216.248 169.43C216.631 169.047 217.014 168.699 217.397 168.386C218.547 167.585 219.835 167.062 221.228 166.853V174.828ZM245.85 114.231L245.572 113.534L245.084 114.022L237.945 121.196L229.935 113.046L228.751 111.862L229.134 111.514L238.711 102.529L239.408 103.156L246.547 109.703L256.229 103.713L257.97 102.633L263.89 109.007L265.806 111.061L249.472 122.798L245.85 114.231ZM92.7187 109.494L83.7335 118.654L78.3354 110.295L76.6986 107.718L81.0867 102.285L82.9325 99.9518L86.0669 102.877L92.7187 109.111V109.494ZM74.6786 112.245L72.206 120.221L55.8724 108.519L61.4446 102.459L63.6735 100.056L64.2655 100.404L76.1065 107.718L74.6786 112.245Z" fill="#EDF9FD"/>
<path fill-rule="evenodd" clip-rule="evenodd" d="M109.923 137.46H79.0319V134.186H109.923V137.46ZM109.923 139.793V142.858H79.0319V139.793H109.923ZM222.969 186.53C224.676 186.53 226.069 187.122 227.183 188.306C228.368 189.49 228.96 190.918 228.96 192.66L216.91 192.555C216.979 190.918 217.606 189.49 218.755 188.306C219.94 187.122 221.333 186.53 222.969 186.53ZM238.432 178.102H207.541V174.828H238.432V178.102ZM238.432 180.436V183.5H207.541V180.436H238.432ZM132.421 14.1743V9.54239H205.278V14.1743H132.421ZM132.421 31.8661V27.2342H205.278V31.8661H132.421ZM132.421 23.0202V18.3883H205.278V23.0202H132.421Z" fill="#BF1464"/>
<path fill-rule="evenodd" clip-rule="evenodd" d="M85.9624 171.346C89.8281 172.217 93.4501 172.112 96.8282 171.102C99.5447 170.231 101.704 168.908 103.271 167.201L102.122 181.411H86.8679L85.9624 171.346ZM83.5245 142.858H105.326L104.978 147.037C103.41 145.679 101.286 144.878 98.6044 144.738C94.4252 144.321 90.1415 145.435 85.7882 148.082C85.1962 148.43 84.639 148.813 84.0817 149.196L83.5245 142.858ZM109.923 137.46V139.793H79.0319V137.46H109.923ZM156.939 130.355L156.381 131.853C153.351 129.624 150.426 129.415 147.57 131.261C144.784 133.037 143.391 135.266 143.391 138.052C145.55 144.321 147.118 148.43 148.162 150.38C147.64 150.694 147.048 150.868 146.351 150.938C146.038 150.938 145.69 150.938 145.341 150.938L129.878 149.545L126.918 149.301L126.326 149.266L124.097 149.057C121.694 148.778 120.963 147.49 121.868 145.122L124.167 139.131L137.018 105.385C137.889 103.016 139.491 101.972 141.928 102.215L163.138 104.096C165.541 104.305 166.342 105.559 165.471 107.927L156.939 130.355ZM222.969 186.53C221.333 186.53 219.94 187.122 218.755 188.306C217.606 189.49 216.979 190.918 216.91 192.555L228.96 192.66C228.96 190.918 228.368 189.49 227.183 188.306C226.069 187.122 224.676 186.53 222.969 186.53ZM212.034 183.5H233.835L232.024 205.336L230.596 222.053H215.342L214.681 213.799C216.944 213.939 219.626 214.008 222.691 214.008C227.567 207.182 228.507 201.122 225.512 195.794C223.248 194.819 220.81 194.192 218.268 193.913C216.318 193.704 214.541 193.704 212.939 193.913L212.034 183.5ZM238.432 178.102V180.436H207.541V178.102H238.432Z" fill="#2C3F8D"/>
<path fill-rule="evenodd" clip-rule="evenodd" d="M96.1317 126.246V134.186H92.7188V107.718H96.1317V126.246ZM224.641 174.828H221.228V148.36H224.641V174.828ZM132.421 23.0202H205.278V18.3883H132.421V23.0202ZM132.421 31.8661H205.278V27.2342H132.421V31.8661ZM132.421 14.1743H205.278V9.54243H132.421V14.1743ZM125.769 0H209.979C213.566 0 215.342 1.81097 215.342 5.39809V34.4433C215.342 38.0304 213.566 39.8414 209.979 39.8414L193.437 39.9459L196.78 54.0157L179.088 39.8414H125.769C122.182 39.8414 120.406 38.0304 120.406 34.4433V5.39809C120.406 1.81097 122.182 0 125.769 0Z" fill="#F13EA7"/>
<path fill-rule="evenodd" clip-rule="evenodd" d="M116.47 175.908C114.973 184.893 112.465 194.053 108.948 203.351H42.4643C41.315 197.117 39.9916 190.918 38.4592 184.824C45.5986 184.162 53.0863 182.421 60.9222 179.669C67.5741 177.231 73.5642 174.376 78.8578 171.102C79.624 170.614 80.3205 170.162 80.9822 169.709C82.6887 170.44 84.3604 170.963 85.9624 171.346L86.8679 181.411H102.122L103.271 167.201C104.072 166.366 104.734 165.425 105.256 164.415C108.112 158.425 108.739 153.619 107.102 149.928C106.58 148.778 105.883 147.803 104.978 147.037L105.326 142.858H109.923V134.186H103.968C103.654 132.166 102.784 130.39 101.321 128.892C99.8233 127.43 98.1168 126.559 96.1317 126.246V107.718H92.7187V109.111L86.0669 102.877C92.266 103.817 98.2909 105.385 104.177 107.648C105.012 107.962 105.744 108.345 106.405 108.763C107.868 109.738 108.913 110.957 109.54 112.454C117.933 132.549 120.266 153.724 116.47 175.908ZM79.032 137.46V142.858H83.5246L84.0818 149.196C81.8181 150.763 79.8678 152.609 78.1961 154.699C74.4349 155.186 68.4447 156.161 60.1561 157.624C45.5638 160.167 37.1358 161.351 34.9418 161.142C34.8721 160.306 34.8721 159.749 34.9418 159.505C34.8025 158.773 34.9418 157.903 35.3249 156.928C35.3945 156.614 38.1458 153.689 43.6484 148.186C49.0465 142.649 52.8077 136.798 54.9669 130.564C55.9421 127.813 56.151 124.644 55.559 121.126C54.9669 117.365 53.6435 114.509 51.554 112.454C48.1061 109.007 43.6484 108.728 38.2503 111.619C41.0016 109.111 44.2056 106.812 47.932 104.793C52.3549 103.713 56.8824 102.947 61.4446 102.459L55.8724 108.519L72.206 120.221L74.6787 112.245C76.0369 111.932 77.2906 111.27 78.3354 110.295L83.7335 118.653L92.7187 109.494V126.246C90.8381 126.489 89.1664 127.36 87.7385 128.788C86.1714 130.355 85.2659 132.166 84.9873 134.186H79.032V137.46Z" fill="#C2DDE0"/>
<path fill-rule="evenodd" clip-rule="evenodd" d="M118.943 74.0757V69.4438H173.307V74.0757H118.943ZM118.943 65.2298V60.5979H173.307V65.2298H118.943Z" fill="#7799A0"/>
<path fill-rule="evenodd" clip-rule="evenodd" d="M118.943 65.2298H173.307V60.5979H118.943V65.2298ZM118.943 74.0757H173.307V69.4438H118.943V74.0757ZM113.371 82.9564C110.62 82.9564 109.261 81.5633 109.261 78.8121V56.767C109.261 54.0157 110.62 52.6226 113.371 52.6226H177.312C180.063 52.6226 181.422 54.0157 181.422 56.767V78.8121C181.422 81.5633 180.063 82.9564 177.312 82.9564H136.844L135.66 83.8271H135.346L120.789 95.5287L123.714 83.026L113.371 82.9564Z" fill="#ADE4E9"/>
</svg>
