<svg width="202" height="202" viewBox="0 0 202 202" fill="none" xmlns="http://www.w3.org/2000/svg">
<path d="M0 100.65C0 45.0828 45.0828 0 100.65 0C156.249 0 201.3 45.0828 201.3 100.65C201.3 156.249 156.249 201.3 100.65 201.3C45.0828 201.3 0 156.249 0 100.65Z" fill="#FFDE59"/>
<path d="M62.7156 172.929C60.4917 175.153 56.8698 175.153 54.6458 172.929L31.1354 149.386C28.8797 147.163 28.8797 143.541 31.1354 141.317L45.8135 126.639C48.0375 124.383 51.6594 124.383 53.8833 126.639L77.4255 150.149C79.6495 152.373 79.6495 155.995 77.4255 158.219L62.7156 172.929Z" fill="#597C7C"/>
<path d="M77.8703 157.742C75.6146 159.966 72.0245 159.966 69.7688 157.742L46.2583 134.2C44.0344 131.976 44.0344 128.386 46.2583 126.13L84.9552 49.5625L154.406 119.014L77.8703 157.742Z" fill="#597C7C"/>
<path d="M128.926 119.172C117.298 107.513 98.4578 107.513 86.8297 119.172C75.2333 130.801 75.2333 149.641 86.8297 161.269C98.4578 172.929 117.298 172.929 128.926 161.269C140.522 149.641 140.522 130.769 128.926 119.172ZM95.2172 152.818C88.2276 145.86 88.2276 134.55 95.2172 127.56C102.207 120.57 113.517 120.57 120.507 127.56C127.465 134.55 127.465 145.86 120.507 152.818C113.517 159.807 102.207 159.807 95.2172 152.818Z" fill="#597C7C"/>
<path d="M126.416 60.7776C124.224 60.7776 122.445 58.9985 122.445 56.8063V22.3985C122.445 20.2063 124.224 18.4271 126.416 18.4271C128.608 18.4271 130.387 20.2063 130.387 22.3985V56.8063C130.387 58.9985 128.64 60.7776 126.416 60.7776Z" fill="#78A4A4"/>
<path d="M133.723 69.9912C132.167 68.4662 132.167 65.9245 133.723 64.3995L158.06 40.0631C159.617 38.5063 162.127 38.5063 163.652 40.0631C165.208 41.5881 165.208 44.098 163.652 45.6548L139.315 69.9912C137.822 71.5798 135.312 71.5798 133.723 69.9912Z" fill="#78A4A4"/>
<path d="M142.206 76.5677C142.206 74.3755 143.985 72.5963 146.178 72.5963H180.585C182.778 72.5963 184.557 74.3755 184.557 76.5677C184.557 78.7599 182.778 80.539 180.585 80.539H146.178C143.985 80.5073 142.206 78.7599 142.206 76.5677Z" fill="#78A4A4"/>
<path d="M80.7932 50.1026C84.5104 46.3854 90.5469 46.3854 94.2958 50.1026L152.913 108.752C156.63 112.469 156.63 118.569 152.913 122.286C149.164 126.003 143.128 126.003 139.41 122.286L80.7932 63.637C77.0443 59.888 77.0443 53.8515 80.7932 50.1026Z" fill="#78A4A4"/>
<path d="M62.7156 172.929C60.4917 175.153 56.8698 175.153 54.6458 172.929L31.1354 149.386C28.8797 147.163 28.8797 143.541 31.1354 141.317L45.8135 126.639C48.0375 124.383 79.5859 155.963 77.362 158.187L62.7156 172.929Z" fill="#3D5353"/>
</svg>
