<svg width="102" height="140" viewBox="0 0 102 140" fill="none" xmlns="http://www.w3.org/2000/svg">
<path fill-rule="evenodd" clip-rule="evenodd" d="M20.4166 42.8442C20.233 40.366 18.2871 38.2181 16.7451 36.5293C17.8098 38.7872 18.8746 41.0636 20.4166 42.8442ZM34.7905 30.7283C35.9654 30.2143 35.3412 28.3785 35.1209 27.2404C34.8639 25.9186 34.4417 24.5969 34.1113 23.7525C34.0746 23.5505 33.9277 23.4954 33.7808 23.4037C33.9094 26.0288 34.6987 28.5805 34.7905 30.7283ZM45.4746 29.0578C45.7499 26.1206 44.5751 23.2017 43.4736 21.0906C43.8224 24.0645 44.5383 26.6713 45.4746 29.0578ZM57.9944 28.7273C58.5635 27.5157 57.5722 26.0471 57.0031 24.909C56.0118 22.9814 54.7635 21.2191 53.3132 20.0993C54.8736 22.9631 56.5074 25.7718 57.9944 28.7273ZM71.0282 23.2384C70.4958 21.4027 68.9354 20.0993 67.6871 18.9244C66.3654 17.7128 64.7867 16.6665 63.1712 15.7669C65.6494 18.4104 68.4765 20.6867 71.0282 23.2384ZM74.0205 19.2549C72.9741 20.1911 71.7074 19.0713 70.863 18.7592C70.5509 20.4481 72.5886 21.3843 73.5248 22.908C75.434 26.0288 76.6456 31.793 73.0292 33.8858C66.3287 34.051 63.6485 28.8191 59.4997 25.9003C59.004 27.8095 62.2533 30.9486 61.1702 34.2162C60.7664 35.4278 59.261 37.2819 57.1683 37.0249C55.0021 36.7679 53.3866 34.5283 51.8263 32.8761C50.8533 31.8481 49.6417 30.8201 49.3113 30.2143C48.7606 29.2046 49.091 27.6442 47.806 27.736C48.4118 30.9853 49.1644 38.879 44.8137 38.6954C42.1702 38.5853 38.8292 33.6288 38.1316 31.3892C37.7461 30.1592 38.4253 28.7273 36.9567 28.5621C36.4427 29.0945 36.9383 29.8104 36.9567 30.5631C37.0301 33.9776 35.8552 37.9611 34.2765 40.0172C28.9528 40.5495 27.8881 35.4095 24.7673 33.2066C24.4369 34.6201 26.6581 35.7032 25.777 37.7041C23.6842 38.9524 20.8572 37.6307 19.2601 36.8597C19.3702 38.1998 20.3065 38.6954 21.4263 39.0259C23.2804 41.4124 26.1074 45.4694 25.4282 50.1505C25.2997 51.1051 24.492 53.2896 23.5924 53.8037C21.775 54.8867 18.9296 53.308 17.7548 52.3167C15.3316 50.2607 14.891 45.6162 12.7432 43.5051C12.5596 45.5244 13.3122 46.6075 13.7528 48.0027C12.5779 47.2867 10.0997 47.3602 8.90644 48.0027C4.77601 43.6887 0.315144 32.8761 4.22529 25.7351C5.82239 22.8162 8.35572 21.4027 11.5683 19.9341C11.8253 18.9061 10.2649 18.9979 10.7422 18.2636C13.349 17.7679 15.2581 19.5486 17.0755 18.7592C15.0562 17.2355 12.1741 16.5563 10.4118 14.7756C11.2562 10.6636 16.3229 13.8394 17.7548 15.4365C17.6446 13.5824 16.8185 9.58046 18.2504 7.965C20.5451 8.57081 19.205 12.7747 20.0862 14.7756C21.004 14.7389 20.6185 13.4172 21.0958 12.9582C26.0891 5.83554 34.5886 1.94375 46.8147 2.82491C56.0485 3.48578 66.5123 8.60752 71.1934 14.1148C72.4417 15.5834 73.5615 17.4558 74.0205 19.2549Z" fill="#333244"/>
<path fill-rule="evenodd" clip-rule="evenodd" d="M63.1713 15.7664C64.7868 16.6659 66.3655 17.7122 67.6872 18.9238C68.9355 20.0987 70.4959 21.4021 71.0283 23.2378C68.4766 20.6862 65.6496 18.4098 63.1713 15.7664Z" fill="black"/>
<path fill-rule="evenodd" clip-rule="evenodd" d="M43.4737 21.0901C44.5751 23.2012 45.75 26.12 45.4746 29.0572C44.5384 26.6708 43.8225 24.064 43.4737 21.0901Z" fill="black"/>
<path fill-rule="evenodd" clip-rule="evenodd" d="M33.7809 23.4216C33.9278 23.4951 34.0746 23.5501 34.1113 23.7521C34.4418 24.5965 34.864 25.9182 35.121 27.24C35.3413 28.3781 35.9655 30.2139 34.7906 30.7279C34.6988 28.5801 33.9094 26.0284 33.7809 23.4216Z" fill="black"/>
<path fill-rule="evenodd" clip-rule="evenodd" d="M27.264 54.4636C27.9616 54.5187 28.2186 54.9776 28.9346 54.9776C29.0263 54.0597 27.4476 53.6559 27.264 54.4636ZM28.4389 53.3071C28.3288 54.023 29.0631 53.9129 29.6138 53.968C29.5771 53.3989 28.8611 52.9767 28.4389 53.3071ZM67.008 49.8192C61.0602 54.6105 50.2476 56.0791 40.1326 55.6385C40.0225 55.2897 40.408 54.482 39.8022 54.6288C38.7558 54.1515 37.7645 57.9882 39.637 57.9515C40.1326 57.511 39.2882 56.7583 39.8022 56.2994C50.9268 57.4926 61.6476 55.4733 67.6872 50.48C68.0911 50.7187 68.5317 51.5081 69.1925 50.9757C68.8621 49.7457 68.0911 48.9747 66.8428 48.6626C66.3838 49.1216 66.9896 49.3419 67.008 49.8192ZM55.3326 46.9921C56.0853 47.5245 57.3887 46.423 58.1597 46.9921C57.7191 47.7631 56.4341 47.7264 56.3239 48.8279C57.7925 48.5158 59.0041 47.9467 59.4998 46.6617C58.8573 45.7254 55.5896 45.6337 55.3326 46.9921ZM29.9442 50.48C29.2283 50.3882 28.7693 50.5351 28.9346 51.3061C31.5964 52.2424 32.2389 49.0849 34.1114 47.8182C36.5896 46.166 38.9027 47.3042 40.7935 48.6626C40.8853 48.424 41.0505 48.2588 41.3075 48.167C38.9394 42.9167 31.0273 46.3863 29.9442 50.48ZM72.5336 44.8443C73.1945 44.881 73.4331 44.5138 73.3597 43.8346C72.9742 43.4858 71.9094 44.2201 72.5336 44.8443ZM71.8544 44.1651C72.093 43.6878 72.6805 43.5409 72.6988 42.8433C71.9829 42.2926 70.7896 43.8897 71.8544 44.1651ZM70.3491 39.025C67.5587 35.0414 60.95 38.309 61.3355 42.6781C62.9877 42.4027 63.3549 40.1631 64.8418 39.1902C67.2283 37.6298 68.6418 39.539 70.5143 40.6771C71.1201 40.3467 71.7259 39.9979 71.6892 39.025C71.1568 38.768 70.9549 38.9699 70.3491 39.025ZM61.9964 29.5525C64.6766 32.4713 69.1558 36.4549 74.2041 34.8762C75.379 36.9138 74.8283 39.3921 75.6911 41.5216C76.3152 43.0085 77.8573 43.5776 78.5365 44.5138C81.7674 48.8646 79.1239 56.795 75.5259 59.1264C71.8911 61.4762 67.9993 62.6143 63.0061 64.5969C58.6553 66.3409 54.1394 68.2134 49.807 68.7457C46.3742 69.1863 42.0969 68.6907 38.1317 68.4153C34.35 68.1766 30.4766 67.4974 27.6128 66.7631C27.6128 66.7631 27.3375 66.6163 27.264 66.5979C23.0969 64.652 22.436 60.1361 20.6003 56.4646C14.8176 56.7766 5.91427 56.2994 8.90653 49.3235C10.4853 48.4424 12.9085 48.9013 14.4138 49.4887C14.9094 50.8655 16.1945 52.3709 16.58 53.3071C15.35 53.3438 13.8447 53.1419 13.4041 53.968C14.4872 55.1245 16.9104 54.1148 18.2505 54.2984C20.0312 54.5554 21.3346 56.2443 23.923 55.1428C28.9529 52.995 26.4563 42.4578 23.2621 39.5206C24.8959 39.2636 26.7133 39.1902 26.9336 37.538C28.6041 39.3921 32.037 43.2839 35.2863 41.0259C37.2505 39.6491 37.1954 36.1061 37.9664 33.2056C39.435 35.8124 40.8119 39.3921 44.1346 39.851C48.0998 40.4201 49.4766 36.7853 49.6418 32.71C50.1742 32.251 50.6331 33.481 51.1471 34.0501C51.7346 34.6742 52.6708 35.1515 52.8177 35.8675C54.7085 37.3911 57.2051 39.282 59.8302 37.8684C62.2534 36.5651 63.1896 32.8385 61.9964 29.5525Z" fill="#CC9D7D"/>
<path fill-rule="evenodd" clip-rule="evenodd" d="M16.7452 36.5286C18.2872 38.2174 20.2331 40.3653 20.4167 42.8435C18.8746 41.0629 17.8099 38.7865 16.7452 36.5286Z" fill="black"/>
<path fill-rule="evenodd" clip-rule="evenodd" d="M71.689 39.0253C71.7257 39.9983 71.1199 40.3471 70.5141 40.6775C68.6417 39.5393 67.2281 37.6302 64.8417 39.1905C63.3547 40.1635 62.9876 42.4031 61.3354 42.6785C60.9499 38.3094 67.5586 35.0418 70.3489 39.0253C70.9547 38.9703 71.1566 38.7683 71.689 39.0253Z" fill="black"/>
<path fill-rule="evenodd" clip-rule="evenodd" d="M72.6987 42.844C72.6803 43.5415 72.0929 43.6884 71.8542 44.1657C70.7895 43.8903 71.9827 42.3116 72.6987 42.844Z" fill="black"/>
<path fill-rule="evenodd" clip-rule="evenodd" d="M73.3594 43.8354C73.4329 44.5146 73.1942 44.8818 72.5334 44.8451C71.9092 44.2209 72.9739 43.4866 73.3594 43.8354Z" fill="black"/>
<path fill-rule="evenodd" clip-rule="evenodd" d="M93.0573 45.175C93.094 48.2408 92.2312 51.3065 92.3964 53.9683C93.8466 53.6929 93.8834 51.949 94.5626 50.976C95.7191 49.3606 97.2428 47.8185 99.5742 47.3229C99.207 50.8475 95.4805 52.4446 93.7365 55.1432C96.6003 57.8601 93.2959 60.8156 90.065 61.2746C90.0466 60.1548 90.7442 59.7509 91.0563 58.9615C96.2515 58.8881 92.378 53.9499 89.551 54.1335C90.1751 50.6089 90.1201 46.405 93.0573 45.175Z" fill="#CC9D7D"/>
<path fill-rule="evenodd" clip-rule="evenodd" d="M41.3074 48.1678C41.0504 48.2596 40.8852 48.4248 40.7934 48.6634C38.9025 47.305 36.5895 46.1668 34.1112 47.819C32.2388 49.0857 31.5963 52.2431 28.9344 51.3069C28.7692 50.5359 29.2282 50.389 29.9441 50.4808C31.0272 46.3871 38.9393 42.9175 41.3074 48.1678Z" fill="black"/>
<path fill-rule="evenodd" clip-rule="evenodd" d="M59.4998 46.662C59.0041 47.947 57.7925 48.5161 56.3239 48.8282C56.4341 47.7267 57.7191 47.7634 58.1597 46.9924C57.3887 46.4233 56.0853 47.5248 55.3326 46.9924C55.5896 45.634 58.8572 45.7258 59.4998 46.662Z" fill="black"/>
<path fill-rule="evenodd" clip-rule="evenodd" d="M66.8426 48.6631C68.0909 48.9752 68.8619 49.7462 69.1924 50.9761C68.5315 51.5085 68.0909 50.7191 67.687 50.4805C61.6474 55.4737 50.9267 57.493 39.802 56.2998C39.288 56.7587 40.1325 57.5114 39.6368 57.952C37.7643 57.9887 38.7556 54.152 39.802 54.6293C40.4078 54.4824 40.0223 55.2901 40.1325 55.6389C50.2474 56.0795 61.06 54.6109 67.0078 49.8196C66.9895 49.3423 66.3837 49.122 66.8426 48.6631Z" fill="black"/>
<path fill-rule="evenodd" clip-rule="evenodd" d="M29.6137 53.9685C29.0629 53.9135 28.3286 54.0236 28.4388 53.3077C28.861 52.9772 29.577 53.3994 29.6137 53.9685Z" fill="black"/>
<path fill-rule="evenodd" clip-rule="evenodd" d="M28.9345 54.9779C28.2186 54.9779 27.9616 54.519 27.264 54.4639C27.4476 53.6562 29.0263 54.06 28.9345 54.9779Z" fill="black"/>
<path fill-rule="evenodd" clip-rule="evenodd" d="M92.5616 57.4565C92.3964 57.4565 92.4331 57.6585 92.3964 57.787C91.4602 58.2826 88.6882 57.2363 87.55 58.2826C87.8438 58.9435 88.78 58.9619 89.7162 58.9619C89.3858 59.7696 88.78 60.3387 88.8901 61.6053C87.293 62.1744 85.9529 63.0005 84.723 63.9367C84.1723 63.1474 84.007 61.9908 83.7133 60.9445C84.3191 60.7793 84.723 60.3937 85.2186 60.1184C85.1819 56.6121 90.3037 53.2894 92.5616 57.4565Z" fill="#CC9D7D"/>
<path fill-rule="evenodd" clip-rule="evenodd" d="M48.1365 97.1633C46.7046 97.1816 45.1075 96.7594 44.1345 97.6589C47.3655 98.7237 53.0746 98.1913 55.8283 97.1633C53.2582 96.9613 50.6331 97.1082 48.1365 97.1633ZM83.2176 64.5971C78.9036 67.8097 72.1664 71.7382 66.8428 75.0609C65.1722 76.1072 61.721 77.7411 61.1703 79.2097C60.8215 80.1459 60.8399 82.5324 60.8399 83.7072C60.8031 88.1314 61.0785 92.7942 61.9964 96.6493C61.9964 97.4937 63.3732 96.943 63.3365 97.8241C62.492 99.3662 60.1423 99.1642 58.3249 99.3111C50.5964 99.972 38.7007 100.596 33.12 97.4937C33.9094 95.9517 33.377 93.8039 33.2853 91.6744C33.0099 85.8734 34.2031 79.6135 34.1113 74.4C29.9075 76.0705 26.493 79.1362 23.5925 82.2019C20.6553 85.3227 17.2775 88.1865 15.2398 92.17C14.1751 91.7478 13.2756 91.142 12.578 90.3526C16.4882 84.258 20.4901 78.6222 26.4379 73.9043C28.1084 72.5826 30.3113 69.7739 31.9452 69.4251C33.1751 69.1497 35.2679 69.6087 36.7915 69.7555C44.1162 70.4164 53.2031 70.6551 59.1693 67.9198C59.8118 68.3787 59.3896 69.9024 60.1606 70.2512C68.5684 69.2048 75.4891 65.2212 82.208 61.9536C82.8505 62.5227 82.7587 63.8444 83.2176 64.5971Z" fill="#FFDA00"/>
<path fill-rule="evenodd" clip-rule="evenodd" d="M14.2485 93.5099C12.8717 96.0065 12.9635 99.8983 13.9181 102.799C13.3674 102.891 13.1287 102.689 12.7432 102.634C12.1558 101.404 12.6147 99.1089 11.9171 97.9891C10.32 98.9621 12.0456 102.23 11.2379 103.974C8.4659 104.102 10.3934 100.743 10.2466 98.4848C8.39248 99.3109 9.10841 102.67 7.89682 104.139C6.006 101.973 7.56639 97.0896 9.23692 95.8229C7.2176 95.8596 5.36349 96.7959 3.56445 96.4838C4.55576 94.0606 7.3461 93.3814 10.577 93.1611C11.1277 92.8857 11.348 92.2799 11.7335 91.8394C12.7616 92.2065 13.3123 93.0509 14.2485 93.5099Z" fill="#CC9D7D"/>
<path fill-rule="evenodd" clip-rule="evenodd" d="M55.8283 97.1633C53.0746 98.1914 47.3655 98.7237 44.1346 97.659C45.1075 96.7595 46.7046 97.1817 48.1365 97.1633C50.6331 97.1083 53.2582 96.9614 55.8283 97.1633Z" fill="black"/>
<path fill-rule="evenodd" clip-rule="evenodd" d="M34.9558 99.9724C42.8128 102.084 54.378 101.606 62.8408 100.303C64.9336 113.227 69.0824 124.113 73.3596 134.852C75.2321 134.007 75.9848 131.162 79.0321 132.043C79.2708 132.465 78.463 133.089 78.0408 133.53C76.6824 134.907 74.8466 136.761 72.35 137.018C69.8534 131.143 66.8611 125.342 64.3461 119.083C62.1616 113.649 60.2524 108.123 57.664 102.965C51.8447 103.332 46.3925 102.708 40.6282 102.965C39.7838 104.874 40.2244 107.242 40.1326 109.445C39.7471 118.569 39.8572 128.867 40.9587 137.018C39.435 137.532 36.5345 137.44 34.7906 137.183C35.0659 135.292 37.2872 135.347 39.1229 135.017C39.3983 132.3 38.3152 129.656 37.7828 126.884C36.2224 118.55 36.2408 108.509 34.9558 99.9724Z" fill="#877B7B"/>
<path fill-rule="evenodd" clip-rule="evenodd" d="M53.3133 20.0986C54.7819 21.2184 56.0118 22.9808 57.0031 24.9083C57.5722 26.0465 58.5635 27.5151 57.9944 28.7267C56.5075 25.7711 54.8737 22.9624 53.3133 20.0986Z" fill="black"/>
<path fill-rule="evenodd" clip-rule="evenodd" d="M37.7828 126.884C38.3151 129.656 39.3982 132.3 39.1229 135.017C37.2871 135.347 35.0659 135.292 34.7905 137.183C36.5345 137.44 39.435 137.532 40.9586 137.018C39.8572 128.867 39.747 118.587 40.1325 109.445C40.2243 107.242 39.7837 104.874 40.6282 102.965C46.3924 102.708 51.8446 103.332 57.6639 102.965C60.2523 108.123 62.1615 113.649 64.3461 119.082C66.861 125.342 69.8533 131.143 72.3499 137.018C74.8465 136.761 76.6823 134.907 78.0407 133.53C78.463 133.089 79.2707 132.465 79.0321 132.043C75.9847 131.162 75.2321 134.007 73.3596 134.852C69.0823 124.112 64.9335 113.226 62.8408 100.303C54.3779 101.606 42.8127 102.083 34.9557 99.9723C36.2408 108.509 36.2224 118.55 37.7828 126.884ZM11.7335 91.8399C11.348 92.2805 11.1277 92.8863 10.577 93.1617C7.34606 93.382 4.55572 94.0612 3.56442 96.4844C5.36345 96.7964 7.21756 95.8602 9.23688 95.8235C7.56635 97.0902 6.00596 101.973 7.89679 104.139C9.10838 102.671 8.39244 99.3114 10.2465 98.4853C10.3934 100.743 8.46587 104.103 11.2378 103.974C12.0456 102.23 10.32 98.9626 11.9171 97.9897C12.6147 99.1095 12.1557 101.404 12.7432 102.634C13.1287 102.689 13.3673 102.891 13.918 102.799C12.9635 99.8989 12.8717 96.0071 14.2485 93.5105C13.3122 93.0515 12.7615 92.2071 11.7335 91.8399ZM82.2079 61.9539C75.4891 65.2216 68.5683 69.2051 60.1606 70.2515C59.3895 69.9027 59.8118 68.3791 59.1693 67.9201C53.2031 70.6554 44.1161 70.4167 36.7915 69.7559C35.2678 69.609 33.175 69.1501 31.9451 69.4254C30.3113 69.7742 28.1084 72.5829 26.4379 73.9047C20.49 78.6225 16.4881 84.2583 12.5779 90.353C13.2755 91.1423 14.175 91.7481 15.2398 92.1704C17.2775 88.1868 20.6552 85.323 23.5924 82.2022C26.4929 79.1365 29.9074 76.0708 34.1113 74.4003C34.2031 79.6138 33.0098 85.8737 33.2852 91.6747C33.377 93.8042 33.9093 95.952 33.12 97.494C38.7007 100.596 50.5963 99.9723 58.3248 99.3114C60.1422 99.1646 62.492 99.3665 63.3364 97.8245C63.3731 96.9433 61.9963 97.494 61.9963 96.6496C61.0784 92.7945 60.8031 88.1317 60.8398 83.7076C60.8398 82.5327 60.8214 80.1462 61.1702 79.21C61.7209 77.7414 65.1721 76.1076 66.8427 75.0612C72.1664 71.7385 78.9036 67.81 83.2176 64.5974C82.7586 63.8448 82.8504 62.523 82.2079 61.9539ZM85.2185 60.1182C84.7229 60.3935 84.319 60.7791 83.7132 60.9443C84.0069 61.9907 84.1722 63.1472 84.7229 63.9365C85.9528 63.0003 87.2929 62.1742 88.89 61.6051C88.7799 60.3385 89.3857 59.7694 89.7161 58.9617C88.7799 58.9617 87.8437 58.9433 87.5499 58.2824C88.6881 57.2361 91.4601 58.2824 92.3963 57.7868C92.433 57.6583 92.3963 57.4747 92.5615 57.4563C90.3036 53.2892 85.1818 56.6119 85.2185 60.1182ZM89.5509 54.1336C92.378 53.9501 96.2514 58.8882 91.0562 58.9617C90.7441 59.751 90.0466 60.1549 90.0649 61.2747C93.2958 60.8158 96.6002 57.8602 93.7364 55.1433C95.4804 52.4448 99.2069 50.8476 99.5741 47.323C97.2427 47.8187 95.719 49.3607 94.5625 50.9762C93.8833 51.9491 93.8465 53.6931 92.3963 53.9684C92.2311 51.3066 93.0939 48.2409 93.0572 45.1752C90.12 46.4051 90.175 50.609 89.5509 54.1336ZM59.8301 37.8689C57.205 39.2824 54.7084 37.3916 52.8176 35.8679C52.6707 35.152 51.7345 34.6747 51.147 34.0506C50.633 33.4815 50.1741 32.2515 49.6417 32.7105C49.4765 36.7858 48.0997 40.4206 44.1345 39.8515C40.8118 39.3926 39.435 35.8129 37.9664 33.2061C37.1953 36.1066 37.2504 39.6496 35.2862 41.0264C32.0369 43.2844 28.604 39.3926 26.9335 37.5385C26.7132 39.1907 24.8958 39.2641 23.262 39.5211C26.4562 42.4583 28.9528 52.9955 23.9229 55.1433C21.3345 56.2448 20.0311 54.5559 18.2504 54.2989C16.9103 54.1153 14.4871 55.125 13.404 53.9684C13.8446 53.1423 15.3499 53.3443 16.5799 53.3076C16.1944 52.3713 14.9093 50.866 14.4137 49.4892C12.9084 48.9018 10.4852 48.4428 8.90644 49.324C5.91418 56.2998 14.8176 56.7771 20.6002 56.465C22.4359 60.1365 23.0968 64.6525 27.2639 66.5984C27.3374 66.6167 27.6127 66.7636 27.6127 66.7636C30.4765 67.4979 34.3499 68.1771 38.1316 68.4158C42.0968 68.6911 46.3741 69.1868 49.8069 68.7462C54.1393 68.2138 58.6552 66.3414 63.006 64.5974C67.9992 62.6148 71.891 61.4766 75.5258 59.1269C79.1238 56.7955 81.7673 48.8651 78.5364 44.5143C77.8572 43.5781 76.3151 43.009 75.691 41.5221C74.8282 39.3926 75.3789 36.9143 74.204 34.8766C69.1557 36.4554 64.6765 32.4718 61.9963 29.553C63.1895 32.839 62.2533 36.5655 59.8301 37.8689ZM71.1934 14.1143C66.5122 8.60707 56.0485 3.48534 46.8147 2.82446C34.5886 1.9433 26.0891 5.8351 21.0958 12.9578C20.6185 13.4167 21.004 14.7385 20.0862 14.7752C19.205 12.7742 20.5451 8.57036 18.2504 7.96456C16.8185 9.58002 17.6446 13.582 17.7548 15.4361C16.3229 13.839 11.2562 10.6631 10.4118 14.7752C12.1741 16.5559 15.0562 17.2351 17.0755 18.7588C15.2581 19.5481 13.349 17.7675 10.7422 18.2631C10.2649 18.9974 11.8253 18.9056 11.5683 19.9336C8.35572 21.4022 5.82239 22.8158 4.22529 25.7346C0.315143 32.8757 4.77601 43.6882 8.90644 48.0022C10.0997 47.3597 12.5779 47.2863 13.7528 48.0022C13.3122 46.6071 12.5596 45.524 12.7432 43.5047C14.891 45.6158 15.3316 50.2602 17.7548 52.3162C18.9296 53.3076 21.775 54.8863 23.5924 53.8032C24.492 53.2892 25.2997 51.1047 25.4282 50.1501C26.1074 45.4689 23.2804 41.4119 21.4263 39.0254C20.3064 38.695 19.3702 38.1993 19.2601 36.8592C20.8572 37.6303 23.6842 38.952 25.777 37.7037C26.6581 35.7027 24.4369 34.6196 24.7673 33.2061C27.8881 35.409 28.9528 40.5491 34.2765 40.0167C35.8552 37.9607 37.0301 33.9771 36.9567 30.5626C36.9383 29.81 36.4427 29.094 36.9567 28.5617C38.4253 28.7269 37.7461 30.1588 38.1316 31.3887C38.8292 33.6283 42.1702 38.5849 44.8137 38.695C49.1644 38.8786 48.4118 30.9849 47.806 27.7356C49.091 27.6438 48.7606 29.2042 49.3113 30.2138C49.6417 30.8196 50.8533 31.8477 51.8263 32.8757C53.3866 34.5278 55.0021 36.7675 57.1683 37.0245C59.261 37.2815 60.7664 35.4274 61.1702 34.2158C62.2533 30.9481 59.004 27.809 59.4997 25.8998C63.6485 28.8187 66.3287 34.0506 73.0292 33.867C76.6456 31.7926 75.434 26.0283 73.5248 22.9076C72.5886 21.3839 70.5509 20.4477 70.863 18.7588C71.7074 19.0708 72.9741 20.1906 74.0205 19.2544C73.5615 17.4554 72.4417 15.5829 71.1934 14.1143ZM62.8408 67.5897C70.1837 65.6621 77.0311 61.7887 83.548 58.466C84.1905 56.1713 85.4572 54.5008 87.3847 53.4728C87.8437 49.5259 88.6697 41.9626 93.406 42.8438C94.9296 43.1375 95.7924 44.8631 95.2417 46.9926C96.0862 45.8177 100.602 43.8167 101.74 46.6622C101.832 51.3433 98.2523 52.3897 96.3982 55.1433C98.8214 58.1723 95.3886 61.7153 92.5615 62.9452C91.4968 63.4042 90.5055 63.1288 89.3857 63.4409C87.7519 63.8998 84.319 66.4882 82.7036 67.5897C76.7007 71.6834 68.6784 76.1626 63.3364 80.2196C63.2997 85.525 63.263 90.8119 64.1808 95.1626C66.2185 95.8051 66.861 99.0911 65.0069 100.486C67.1915 111.372 70.5509 121.102 74.204 130.538C75.1219 130.648 75.7461 129.546 77.0311 129.381C79.1606 129.087 81.6572 130.152 81.7122 132.043C81.7673 133.805 78.1325 136.797 76.8659 137.679C75.7277 138.486 73.5615 139.459 72.1847 139.184C70.0185 138.743 68.2379 133.824 67.1731 131.694C63.1895 123.672 59.7383 113.851 56.3238 105.461C51.6427 105.406 46.7779 105.553 42.6292 104.966C41.8031 112.437 42.2804 125.581 43.1432 133.695C43.4369 136.614 42.9045 139.129 40.9586 139.68C38.4804 140.359 32.8813 140.028 32.2755 138.009C31.4311 135.09 34.4417 133.475 36.461 132.869C34.4234 125.636 34.0929 117.008 33.2852 108.123C33.0282 105.259 33.2118 101.973 32.2755 99.8071C32.0185 99.2013 31.2475 98.6322 31.119 97.9897C30.862 96.7964 31.3577 95.3279 31.2842 94.1713C30.9538 88.9211 30.8804 83.267 31.7799 78.3839C29.0446 80.1646 25.6668 82.9365 22.6011 86.1858C19.8475 89.1047 16.3412 92.2805 15.4234 96.1539C14.8359 98.5955 16.0659 100.596 15.919 103.295C15.4968 103.515 15.2031 104.452 14.5789 104.8C14.2301 104.984 13.6427 104.764 13.0736 104.966C12.1741 105.278 11.8436 106.049 11.2378 106.122C10.6871 106.195 10.1915 105.645 9.4021 105.626C8.5393 105.608 7.98857 106.214 7.40113 106.122C4.7393 105.681 4.68422 101.808 5.40017 98.8158C3.25234 99.0728 1.91224 98.5221 1.21466 97.3288C1.0678 93.3269 5.16152 90.867 9.89775 91.0138C14.4871 82.3307 20.9122 75.4834 28.2736 69.5907C23.2253 68.0119 20.3615 64.267 19.0949 58.9617C11.5866 59.9713 3.63785 56.9791 6.06104 48.9935C2.73833 45.01 -0.474229 37.208 0.0581374 29.8834C0.406931 24.8718 4.18857 20.5945 8.062 18.5935C7.98857 17.7491 8.19051 17.18 8.74123 16.9414C5.78568 13.4351 10.5219 8.33172 14.9093 10.6264C14.2485 5.6148 19.8842 3.33848 21.7567 7.96456C27.2639 2.12688 35.8552 -0.736888 47.806 0.162628C55.5528 0.750068 64.7867 4.73364 69.6881 8.79065C72.7905 11.3607 78.6833 17.437 75.691 21.4206C77.7654 24.3394 79.6011 31.1868 76.3702 34.2158C77.6369 35.9964 77.0678 38.1443 77.8755 40.182C78.7016 42.2931 81.033 42.9723 81.8775 45.1752C84.062 50.866 81.1615 57.0892 78.206 60.1182C74.4978 63.9182 68.0543 65.4051 62.8408 67.5897Z" fill="black"/>
</svg>
