<svg width="203" height="203" viewBox="0 0 203 203" fill="none" xmlns="http://www.w3.org/2000/svg">
<path d="M0 101.28C0 45.365 45.365 0 101.28 0C157.195 0 202.56 45.365 202.56 101.28C202.56 157.195 157.195 202.56 101.28 202.56C45.365 202.56 0 157.195 0 101.28Z" fill="#FFCE00"/>
<path d="M160.067 138.703C160.067 145.561 158.484 145.443 151.246 145.443H54.1274C46.9475 145.443 41.1157 139.905 41.1157 132.989V74.5827C41.1157 67.7252 46.9475 62.1278 54.1274 62.1278H150.543C157.752 62.1278 160.067 64.5895 160.067 71.4763V138.703Z" fill="#525252"/>
<path d="M157.547 136.622C157.547 143.48 155.583 143.363 148.667 143.363H56.1201C49.2333 143.363 43.636 137.824 43.636 130.908V77.8062C43.636 70.9487 49.2333 65.3513 56.1201 65.3513H149.488C156.404 65.3513 157.547 68.487 157.547 75.4031V136.622Z" fill="#444545"/>
<path d="M152.916 71.7985L71.0366 60.8676L66.2892 96.3273L148.227 107.229L152.916 71.7985Z" fill="#63BD6E"/>
<path d="M147.055 105.441L67.9302 94.9207L72.2088 62.7139L151.334 73.2639L147.055 105.441ZM150.513 73.9672L72.795 63.593L68.6922 94.1294L146.44 104.504L150.513 73.9672Z" fill="#117F4A"/>
<path d="M123.611 85.9239C124.637 78.2166 119.215 71.1246 111.478 70.0989C103.771 69.0732 96.679 74.4948 95.6533 82.2021C94.6276 89.9388 100.049 97.0307 107.757 98.0564C115.493 99.0821 122.556 93.6606 123.611 85.9239Z" fill="#117F4A"/>
<path d="M107.698 95.6826L108.02 93.3968C107.083 93.1037 106.35 92.7814 105.822 92.3418C105.295 91.9022 104.826 91.2282 104.504 90.349C104.181 89.4698 104.064 88.4148 104.152 87.184L106.086 87.0375C106.086 88.2683 106.233 89.2061 106.496 89.8508C106.907 90.7593 107.522 91.2868 108.255 91.4919L109.251 84.1655C108.46 83.9018 107.727 83.4329 106.965 82.7589C106.379 82.2607 106.028 81.6452 105.764 80.8833C105.529 80.0921 105.471 79.2715 105.617 78.3337C105.822 76.6926 106.467 75.4325 107.581 74.5826C108.313 73.9965 109.31 73.6741 110.599 73.7327L110.746 72.6191L111.889 72.795L111.742 73.8793C112.826 74.1723 113.647 74.6705 114.233 75.4032C114.966 76.3409 115.317 77.5718 115.288 79.0371L113.237 79.125C113.237 78.2165 113.119 77.4839 112.826 76.9564C112.533 76.4289 112.094 76.0479 111.478 75.8134L110.599 82.4072C111.537 82.8175 112.094 83.1691 112.416 83.345C113.002 83.7552 113.413 84.2241 113.735 84.693C114.057 85.1912 114.262 85.7773 114.38 86.4221C114.497 87.0668 114.497 87.7408 114.438 88.4734C114.233 90.0559 113.618 91.3161 112.621 92.3125C111.654 93.2503 110.453 93.6898 109.163 93.5726L108.841 95.8878L107.698 95.6826ZM110.394 75.6083C109.603 75.6376 108.987 75.9307 108.46 76.4582C107.962 76.9857 107.639 77.6304 107.581 78.4216C107.434 79.1836 107.581 79.8869 107.844 80.473C108.138 81.0298 108.724 81.528 109.515 81.9676L110.394 75.6083ZM109.398 91.6091C110.189 91.6091 110.834 91.2868 111.39 90.6714C111.977 90.0559 112.328 89.2647 112.475 88.2976C112.592 87.4478 112.504 86.7737 112.211 86.2169C111.947 85.6308 111.332 85.1033 110.335 84.5758L109.398 91.6091Z" fill="#63BD6E"/>
<path d="M130.791 42.9326L55.5047 77.0736L70.304 109.661L145.561 75.4911L130.791 42.9326Z" fill="#63BD6E"/>
<path d="M143.627 74.5825L70.9195 107.581L57.4682 78.0112L130.175 45.0132L143.627 74.5825ZM129.882 46.0389L58.4939 78.4508L71.2418 106.496L142.63 74.0843L129.882 46.0389Z" fill="#117F4A"/>
<path d="M113.412 70.4508C110.189 63.3588 101.807 60.2232 94.7448 63.4468C87.6528 66.6704 84.4878 75.0225 87.7407 82.0851C90.9644 89.2063 99.3164 92.342 106.379 89.1184C113.5 85.9241 116.577 77.572 113.412 70.4508Z" fill="#117F4A"/>
<path d="M105.09 87.1546L104.152 85.0446C103.185 85.3084 102.394 85.3963 101.69 85.2791C100.987 85.1912 100.254 84.8688 99.5217 84.312C98.7891 83.7259 98.1443 82.9053 97.5582 81.8503L99.17 80.6781C99.8147 81.7331 100.43 82.4657 100.987 82.8174C101.808 83.3449 102.599 83.5207 103.331 83.2863L100.254 76.5753C99.4924 76.7512 98.5839 76.7512 97.5582 76.5753C96.8256 76.4581 96.1809 76.1357 95.5654 75.6082C94.95 75.0807 94.4518 74.3774 94.1002 73.5569C93.3968 72.0623 93.3089 70.6556 93.7778 69.3075C94.1002 68.4284 94.8035 67.6371 95.8878 66.9338L95.4482 65.9374L96.4739 65.4685L96.9135 66.4942C97.9685 66.1718 98.9649 66.1718 99.8147 66.4649C100.899 66.8752 101.895 67.725 102.657 68.9852L100.987 70.1281C100.518 69.3662 100.02 68.8386 99.4924 68.5456C98.9649 68.2525 98.3788 68.1646 97.7341 68.2818L100.518 74.3774C101.485 74.2016 102.188 74.1723 102.54 74.2016C103.243 74.2602 103.8 74.4067 104.328 74.6705C104.885 74.9049 105.353 75.2859 105.822 75.7548C106.262 76.253 106.614 76.8391 106.907 77.4838C107.581 78.9491 107.757 80.3264 107.405 81.6745C107.083 83.0225 106.291 83.9603 105.119 84.5757L106.086 86.715L105.09 87.1546ZM96.7084 68.6921C96.0929 69.161 95.6827 69.7178 95.5654 70.4212C95.3896 71.1245 95.5361 71.8571 95.8585 72.5898C96.1809 73.3224 96.6204 73.8499 97.1479 74.1723C97.7341 74.4946 98.4667 74.6118 99.3752 74.5825L96.7084 68.6921ZM104.328 82.8174C105.002 82.4071 105.353 81.821 105.529 81.0005C105.676 80.1799 105.559 79.33 105.148 78.4216C104.826 77.6303 104.386 77.1028 103.859 76.7805C103.331 76.4581 102.511 76.3409 101.397 76.3702L104.328 82.8174Z" fill="#63BD6E"/>
<path d="M154.645 144.388C154.645 151.246 151.891 153.209 145.033 153.209H48.0904C41.2329 153.209 41.1157 152.565 41.1157 145.707V75.286C41.1157 75.286 41.2036 73.6156 41.2622 72.5313C41.4381 70.1869 43.1964 67.8424 43.1964 67.8424C43.1964 67.8424 44.2221 72.1796 47.1526 73.3519C51.7536 75.2274 55.2996 75.0809 55.2996 75.0809H145.033C151.891 75.0809 154.645 75.96 154.645 82.8175V144.388Z" fill="#616161"/>
<path d="M49.3213 79.799H42.9034C41.9949 79.799 41.3209 79.0664 41.3209 78.2165C41.3209 77.3081 42.0535 76.634 42.9034 76.634H49.3213C50.2004 76.634 50.9038 77.3667 50.9038 78.2165C50.9038 79.125 50.1711 79.799 49.3213 79.799Z" fill="#717171"/>
<path d="M142.718 151.275H139.582C138.674 151.275 137.971 150.542 137.971 149.693C137.971 148.843 138.703 148.11 139.582 148.11H142.718C148.052 148.11 148.931 147.641 149.37 145.942C149.605 145.092 150.484 144.593 151.334 144.799C152.184 145.033 152.682 145.912 152.477 146.762C151.246 151.275 147.085 151.275 142.718 151.275ZM126.659 151.275H113.764C112.885 151.275 112.182 150.542 112.182 149.693C112.182 148.843 112.914 148.11 113.764 148.11H126.659C127.567 148.11 128.27 148.843 128.27 149.693C128.27 150.542 127.538 151.275 126.659 151.275ZM100.899 151.275H88.0046C87.1254 151.275 86.4221 150.542 86.4221 149.693C86.4221 148.843 87.1547 148.11 88.0046 148.11H100.899C101.807 148.11 102.511 148.843 102.511 149.693C102.511 150.542 101.778 151.275 100.899 151.275ZM75.1101 151.275H62.2157C61.3072 151.275 60.6332 150.542 60.6332 149.693C60.6332 148.843 61.3658 148.11 62.2157 148.11H75.1101C76.0186 148.11 76.6926 148.843 76.6926 149.693C76.6926 150.542 76.0186 151.275 75.1101 151.275ZM151.246 135.069C150.337 135.069 149.663 134.337 149.663 133.487V120.592C149.663 119.684 150.396 119.01 151.246 119.01C152.154 119.01 152.828 119.742 152.828 120.592V133.487C152.828 134.395 152.154 135.069 151.246 135.069ZM151.246 109.31C150.337 109.31 149.663 108.577 149.663 107.727V94.8326C149.663 93.9242 150.396 93.2501 151.246 93.2501C152.154 93.2501 152.828 93.9828 152.828 94.8326V107.727C152.828 108.577 152.154 109.31 151.246 109.31ZM150.748 83.6086C150.074 83.6086 149.458 83.169 149.253 82.495C148.784 81.059 148.022 79.8868 143.04 79.8868H139.494C138.586 79.8868 137.912 79.1542 137.912 78.3043C137.912 77.3958 138.645 76.6925 139.494 76.6925H143.04C147.055 76.6925 150.924 77.2786 152.272 81.5572C152.565 82.4071 152.066 83.3156 151.217 83.55C151.07 83.55 150.924 83.6086 150.748 83.6086ZM126.6 79.8575H113.676C112.797 79.8575 112.094 79.1249 112.094 78.2457C112.094 77.3958 112.826 76.6632 113.676 76.6632H126.6C127.479 76.6632 128.182 77.3958 128.182 78.2457C128.182 79.1249 127.479 79.8575 126.6 79.8575ZM100.84 79.8575H87.9166C87.0375 79.8575 86.3341 79.1249 86.3341 78.2457C86.3341 77.3665 87.0668 76.6632 87.9166 76.6632H100.84C101.72 76.6632 102.423 77.3958 102.423 78.2457C102.423 79.1249 101.72 79.8575 100.84 79.8575ZM75.0808 79.8575H62.1864C61.2779 79.8575 60.5746 79.1249 60.5746 78.2457C60.5746 77.3665 61.3072 76.6632 62.1864 76.6632H75.0808C75.96 76.6632 76.6633 77.3958 76.6633 78.2457C76.6633 79.1249 75.96 79.8575 75.0808 79.8575Z" fill="#717171"/>
<path d="M49.3213 151.275H42.9034C41.9949 151.275 41.3209 150.542 41.3209 149.693C41.3209 148.843 42.0535 148.11 42.9034 148.11H49.3213C50.2004 148.11 50.9038 148.843 50.9038 149.693C50.9038 150.542 50.1711 151.275 49.3213 151.275Z" fill="#717171"/>
<path d="M148.462 141.37C148.462 147.202 146.44 147.641 140.461 147.641H41.2622V80.1215L140.784 80.1801C146.762 80.1801 148.462 81.8212 148.462 87.653V141.37Z" fill="#616161"/>
<path d="M160.272 116.841H129.15C127.157 116.841 123.406 113.237 123.406 105.94C123.406 98.6718 127.157 95.2723 129.15 95.2723H160.272C161.327 95.2723 161.21 116.841 160.272 116.841Z" fill="#727172"/>
<path d="M160.272 118.6H129.15C127.157 118.6 123.406 114.995 123.406 107.727C123.406 100.459 127.157 97.0892 129.15 97.0892H160.272C161.327 97.0306 161.21 118.6 160.272 118.6Z" fill="#575656"/>
<path d="M137.238 107.844C137.238 110.452 135.421 112.592 133.194 112.592C130.966 112.592 129.15 110.452 129.15 107.844C129.15 105.236 130.996 103.126 133.194 103.126C135.45 103.126 137.238 105.236 137.238 107.844Z" fill="#D6CB78"/>
<path d="M136.476 107.844C136.476 109.984 135.011 111.683 133.194 111.683C131.406 111.683 129.941 109.984 129.941 107.844C129.941 105.734 131.406 104.005 133.194 104.005C135.011 104.005 136.476 105.734 136.476 107.844Z" fill="#ECE17E"/>
</svg>
