<svg width="117" height="146" viewBox="0 0 117 146" fill="none" xmlns="http://www.w3.org/2000/svg">
<path d="M114.985 65.0273L32.5448 96.7637L17.8063 56.3211L100.225 24.5847L114.985 65.0273Z" fill="#7EBF33"/>
<path d="M97.6758 29.166L22.657 58.0625L35.0945 92.1827L110.134 63.2862L97.6758 29.166ZM96.971 30.7622L108.579 62.5607L35.82 90.5658L24.2117 58.788L96.971 30.7622Z" fill="#293B19"/>
<path d="M30.8035 55.6785C32.296 59.8036 30.2646 64.4262 26.2431 65.9601L23.5069 58.4769L30.8035 55.6785Z" fill="#293B19"/>
<path d="M90.1304 32.835C91.6436 36.9601 96.1211 39.0538 100.143 37.4991L97.4063 30.0159L90.1304 32.835Z" fill="#293B19"/>
<path d="M32.7728 83.8912C36.815 82.3365 41.2925 84.4302 42.8057 88.576L35.509 91.3744L32.7728 83.8912Z" fill="#293B19"/>
<path d="M106.693 55.4297C102.651 56.9844 100.619 61.5863 102.133 65.7114L109.409 62.9129L106.693 55.4297Z" fill="#293B19"/>
<path d="M78.0038 55.6582C80.5535 62.6854 77.0917 70.5003 70.2718 73.1329C63.4519 75.7655 55.8236 72.2001 53.2739 65.1936C50.7035 58.1664 54.1652 50.3515 61.0059 47.7189C67.8258 45.0863 75.4334 48.6517 78.0038 55.6582Z" fill="#293B19"/>
<path d="M62.5399 57.6479C62.229 57.3784 61.9802 57.026 61.8351 56.6322C61.6278 56.0932 61.5864 55.6164 61.69 55.2019C61.7937 54.808 62.0631 54.5385 62.4777 54.3105L63.908 58.249C63.3484 58.1039 62.8923 57.9174 62.5399 57.6479ZM69.7329 70.7487L68.9245 68.5514C70.2512 67.9503 71.1218 67.1211 71.5364 66.0432C71.951 64.9446 71.8888 63.6801 71.3705 62.2498C70.9352 61.0682 70.2719 60.1976 69.4013 59.6586C68.5099 59.0989 67.0796 58.6844 65.1518 58.4563L63.5142 53.9581C63.9288 53.813 64.3226 53.8545 64.675 54.1239C65.0481 54.3934 65.3384 54.8495 65.5664 55.4713L65.6493 55.6994L68.199 54.7251L68.0746 54.3934C67.5978 53.0875 66.893 52.1961 66.0224 51.7608C65.1311 51.3048 64.0531 51.3462 62.8301 51.7815L62.2497 50.2683L61.0474 50.7244L61.6071 52.2376C60.4463 52.7558 59.6378 53.5228 59.244 54.5385C58.8501 55.575 58.8709 56.7151 59.3476 57.9796C59.7415 59.0575 60.3841 59.8866 61.2754 60.4671C62.1668 61.0475 63.4727 61.4828 65.1725 61.7315L66.9967 66.7273C66.4577 66.8309 65.981 66.7065 65.5871 66.3956C65.1933 66.0639 64.8409 65.525 64.5506 64.7373C64.5506 64.6958 64.5092 64.5922 64.4677 64.4885C64.447 64.3641 64.4055 64.2812 64.3848 64.219L61.7937 65.214L61.9388 65.6494C62.5192 67.204 63.2654 68.2405 64.2397 68.8209C65.1933 69.3806 66.3748 69.4428 67.7222 69.0282L68.5306 71.2048L69.7329 70.7487ZM66.3955 61.8559C67.0796 62.0217 67.5978 62.229 67.9295 62.5192C68.2819 62.7887 68.5514 63.2033 68.7587 63.763C68.966 64.3227 69.0074 64.8202 68.883 65.2555C68.7794 65.7115 68.4685 66.0639 68.0331 66.3334L66.3955 61.8559Z" fill="#64C545"/>
<path d="M48.1746 68.5516C49.1075 71.1428 47.843 74.0034 45.3348 74.9777C42.8265 75.9519 40.0281 74.646 39.0745 72.0549C38.1417 69.4844 39.4062 66.6031 41.9144 65.6496C44.4227 64.6753 47.2211 65.9812 48.1746 68.5516Z" fill="#293B19"/>
<path d="M94.0898 50.8695C95.0433 53.4607 93.7581 56.3213 91.2499 57.2956C88.7416 58.2491 85.9639 56.9432 85.0104 54.3727C84.0776 51.8023 85.342 48.921 87.8503 47.9674C90.3585 46.9932 93.1569 48.2991 94.0898 50.8695Z" fill="#293B19"/>
<path d="M102.817 43.0545L32.296 97.1783L7.13083 62.5606L77.6722 8.43677L102.817 43.0545Z" fill="#7EBF33"/>
<path d="M76.4699 13.5776L12.2717 62.8301L33.4776 92.0375L97.6966 42.7643L76.4699 13.5776ZM76.2211 15.3189L95.9968 42.5156L33.7263 90.2963L13.9715 63.0996L76.2211 15.3189Z" fill="#293B19"/>
<path d="M19.4439 58.2075C22.0144 61.7522 21.3096 66.7687 17.8478 69.4013L13.2045 62.996L19.4439 58.2075Z" fill="#293B19"/>
<path d="M70.2097 19.2574C72.7801 22.8021 77.6515 23.5276 81.0925 20.8743L76.4492 14.469L70.2097 19.2574Z" fill="#293B19"/>
<path d="M29.0001 84.7404C32.4411 82.0871 37.3125 82.8126 39.9036 86.3573L33.6642 91.1457L29.0001 84.7404Z" fill="#293B19"/>
<path d="M92.2448 36.2139C88.8037 38.8672 88.0989 43.8629 90.6693 47.4076L96.9088 42.6192L92.2448 36.2139Z" fill="#293B19"/>
<path d="M64.7578 44.6709C69.1317 50.6616 67.9294 59.1813 62.0837 63.6588C56.2381 68.1363 47.9672 66.9133 43.5933 60.9019C39.2402 54.8904 40.4425 46.3914 46.2881 41.9139C52.1337 37.4364 60.4047 38.6595 64.7578 44.6709Z" fill="#293B19"/>
<path d="M50.5376 51.056C50.1438 50.8694 49.8121 50.6207 49.5633 50.2683C49.2317 49.8122 49.0451 49.3562 49.0451 48.9623C49.0244 48.527 49.2109 48.1746 49.5426 47.8637L51.9886 51.2218C51.4082 51.2426 50.9315 51.2011 50.5376 51.056ZM60.9851 61.5657L59.617 59.6793C60.7156 58.7258 61.3168 57.6893 61.4204 56.5285C61.5241 55.3469 61.1302 54.1654 60.2389 52.9216C59.5133 51.9266 58.622 51.284 57.6477 51.0145C56.6527 50.7243 55.1602 50.7451 53.2531 51.0767L50.4547 47.2004C50.8071 46.9516 51.2009 46.8894 51.6155 47.0553C52.0301 47.2004 52.4447 47.532 52.8178 48.0917L52.9629 48.2783L55.1395 46.5992L54.9529 46.3297C54.1445 45.2104 53.2324 44.5678 52.2581 44.4019C51.2839 44.2154 50.2681 44.547 49.1902 45.3347L48.2367 44.0288L47.2002 44.8165L48.1538 46.1225C47.1795 46.9516 46.6198 47.9259 46.4954 49.0038C46.3918 50.1025 46.7442 51.1804 47.5319 52.2583C48.2159 53.1911 49.0451 53.813 50.0608 54.1032C51.0766 54.4141 52.4447 54.4556 54.1445 54.2068L57.2539 58.4978C56.7771 58.7465 56.2796 58.7465 55.8235 58.5807C55.3468 58.3527 54.87 57.9381 54.3725 57.2747C54.3518 57.2333 54.2896 57.1504 54.2274 57.0467C54.1652 56.9431 54.1238 56.8602 54.0823 56.8187L51.8435 58.5392L52.113 58.8916C53.0873 60.2183 54.0823 61.006 55.1809 61.2755C56.2589 61.545 57.399 61.2548 58.5805 60.467L59.9486 62.3534L60.9851 61.5657ZM55.3675 53.9788C56.0516 53.9373 56.6113 53.9788 57.0051 54.1654C57.4404 54.3312 57.7928 54.6421 58.1659 55.1189C58.4976 55.6164 58.6634 56.0932 58.6634 56.5285C58.7049 57.0053 58.4976 57.4199 58.1452 57.8137L55.3675 53.9788Z" fill="#64C545"/>
<path d="M39.6134 65.6082C41.2303 67.8055 40.7743 70.9356 38.6392 72.5732C36.4833 74.2315 33.4569 73.7755 31.84 71.5782C30.2439 69.3602 30.6792 66.2508 32.835 64.5925C34.9701 62.9549 38.0173 63.3902 39.6134 65.6082Z" fill="#293B19"/>
<path d="M78.9159 35.4471C80.5328 37.6651 80.0768 40.7745 77.9417 42.4329C75.7858 44.0705 72.7386 43.6144 71.1425 41.4171C69.5464 39.2198 69.9817 36.0897 72.1375 34.4521C74.2726 32.7938 77.3198 33.2498 78.9159 35.4471Z" fill="#293B19"/>
<path d="M88.0575 27.1552L32.6899 97.4893L0 70.3133L55.3676 0L88.0575 27.1552Z" fill="#7EBF33"/>
<path d="M55.4505 5.28589L5.05792 69.2768L32.6277 92.2033L83.0203 28.1916L55.4505 5.28589ZM55.6164 7.02714L81.3205 28.3782L32.4412 90.4413L6.75772 69.0903L55.6164 7.02714Z" fill="#293B19"/>
<path d="M10.8828 62.9958C14.2409 65.7736 14.7384 70.79 12.0436 74.2311L5.99072 69.2146L10.8828 62.9958Z" fill="#293B19"/>
<path d="M50.745 12.3752C54.0824 15.153 58.9745 14.614 61.69 11.1937L55.6371 6.15649L50.745 12.3752Z" fill="#293B19"/>
<path d="M26.5333 86.2749C29.2281 82.8338 34.1409 82.2949 37.4783 85.0726L32.5862 91.2913L26.5333 86.2749Z" fill="#293B19"/>
<path d="M76.1589 23.2166C73.4641 26.6576 73.9824 31.6948 77.3198 34.4725L82.2118 28.2537L76.1589 23.2166Z" fill="#293B19"/>
<path d="M51.5533 38.3699C57.2331 43.0962 58.1037 51.6366 53.5226 57.4615C48.9415 63.2864 40.6291 64.1778 34.9493 59.4722C29.2902 54.7667 28.3988 46.2263 32.98 40.4014C37.5819 34.5765 45.8943 33.6644 51.5533 38.3699Z" fill="#293B19"/>
<path d="M39.2403 48.1541C38.8257 48.0712 38.4526 47.9261 38.1209 47.6359C37.6856 47.2835 37.3954 46.8896 37.2918 46.4958C37.1881 46.1019 37.2918 45.7081 37.5198 45.3142L40.6914 47.9675C40.1524 48.1127 39.6756 48.1956 39.2403 48.1541ZM51.9058 55.6995L50.1231 54.2278C50.9523 53.0047 51.3047 51.8439 51.1181 50.7038C50.9523 49.543 50.2682 48.4858 49.1074 47.5115C48.1539 46.7238 47.1589 46.3092 46.1224 46.3092C45.0859 46.2885 43.6556 46.6823 41.8936 47.4908L38.2453 44.4436C38.5355 44.1119 38.9086 43.9461 39.344 44.0083C39.7793 44.029 40.256 44.2778 40.7743 44.6923L40.9608 44.8374L42.6606 42.6816L42.3911 42.4743C41.334 41.583 40.2975 41.1891 39.3232 41.272C38.3282 41.3549 37.4369 41.9146 36.587 42.9511L35.3432 41.9354L34.5348 42.9511L35.7578 43.9668C35.0116 45.024 34.7006 46.1019 34.8457 47.2006C35.0116 48.2785 35.6127 49.2528 36.6284 50.1027C37.5198 50.8282 38.4733 51.2013 39.5305 51.2428C40.5877 51.2842 41.9144 50.9525 43.5105 50.2892L47.5527 53.6473C47.1381 54.0205 46.6614 54.1656 46.1846 54.1034C45.6871 54.0205 45.1067 53.7303 44.4641 53.212C44.4433 53.1706 44.3604 53.1084 44.2775 53.0462C44.1946 52.9425 44.1117 52.8804 44.0702 52.8389L42.3082 55.0569L42.6606 55.3471C43.9251 56.4043 45.0859 56.9018 46.226 56.8811C47.3247 56.8811 48.3612 56.3007 49.3147 55.2435L51.0974 56.7153L51.9058 55.6995ZM44.6299 49.771C45.2932 49.5637 45.8529 49.4601 46.2675 49.5222C46.7235 49.5844 47.1589 49.7917 47.6149 50.1648C48.0709 50.5587 48.3404 50.9733 48.4648 51.4086C48.5892 51.8439 48.5063 52.2999 48.2368 52.7767L44.6299 49.771Z" fill="#7EBF33"/>
<path d="M32.2338 65.048C34.3067 66.7685 34.6384 69.8986 32.9386 72.0544C31.2596 74.1895 28.2124 74.5212 26.1187 72.78C24.0458 71.0594 23.7141 67.9293 25.3932 65.7735C27.093 63.6384 30.1402 63.3067 32.2338 65.048Z" fill="#293B19"/>
<path d="M63.0788 25.8489C65.1517 27.5902 65.4834 30.7203 63.7836 32.8761C62.1046 35.0112 59.0574 35.3429 56.9637 33.6017C54.8908 31.8811 54.5591 28.751 56.2382 26.5952C57.938 24.4601 60.9852 24.1284 63.0788 25.8489Z" fill="#293B19"/>
<path d="M107.999 93.4263L108.953 103.252C108.953 103.252 127.153 100.205 107.999 93.4263Z" fill="#3F2114"/>
<path d="M111.129 139.404C111.15 142.658 108.579 145.291 105.429 145.291H9.5976C6.44676 145.311 3.87634 142.658 3.87634 139.424V78.4391C3.87634 75.2053 6.42603 72.5727 9.5976 72.5727L105.408 72.552C108.559 72.552 111.129 75.1846 111.129 78.4391V139.404Z" fill="#804E35"/>
<path d="M103.749 136.149C103.604 136.502 103.397 136.813 103.148 137.103L103.77 137.642C104.06 137.289 104.288 136.916 104.475 136.502L103.749 136.149ZM102.63 137.642C102.34 137.89 102.029 138.098 101.697 138.284L102.07 139.031C102.464 138.823 102.817 138.575 103.148 138.284L102.63 137.642ZM101.013 138.575C100.661 138.678 100.288 138.761 99.9146 138.782L99.9767 139.611C100.412 139.57 100.847 139.487 101.262 139.362L101.013 138.575ZM99.1269 138.803H97.9246V139.632H99.1269V138.803ZM97.0954 138.803H95.8931V139.632H97.0954V138.803ZM95.0847 138.803H93.8616V139.632H95.0847V138.803ZM93.0532 138.803H91.8302V139.632H93.0532V138.803ZM91.0218 138.803H89.8195V139.632H91.0218V138.803ZM89.011 138.803H87.788V139.632H89.011V138.803ZM86.9796 138.803H85.7565V139.632H86.9796V138.803ZM84.9481 138.803H83.7458V139.632H84.9481V138.803ZM82.9166 138.803H81.7144V139.632H82.9374L82.9166 138.803ZM80.9059 138.803H79.6829V139.632H80.9059V138.803ZM78.8745 138.803H77.6514V139.632H78.8745V138.803ZM76.843 138.803H75.6407V139.632H76.843V138.803ZM74.8323 138.803H73.6093V139.632H74.8323V138.803ZM72.8008 138.803H71.5778V139.632H72.8008V138.803ZM70.7694 138.803H69.5671V139.632H70.7694V138.803ZM68.7379 138.803H67.5356V139.632H68.7379V138.803ZM66.7272 138.803H65.5042V139.632H66.7272V138.803ZM64.6957 138.803H63.4727V139.632H64.6957V138.803ZM62.6643 138.803H61.462V139.632H62.6643V138.803ZM60.6535 138.803H59.4305V139.632H60.6535V138.803ZM58.6221 138.803H57.399V139.632H58.6221V138.803ZM56.5906 138.803H55.3883V139.632H56.5906V138.803ZM54.5799 138.803H53.3569V139.632H54.5799V138.803ZM52.5484 138.803H51.3254V139.632H52.5484V138.803ZM50.517 138.803H49.2939V139.632H50.517V138.803ZM48.4855 138.803H47.2832V139.632H48.4855V138.803ZM46.4748 138.803H45.2518V139.632H46.4748V138.803ZM44.4433 138.803H43.2203V139.632H44.4433V138.803ZM42.4119 138.803H41.2096V139.632H42.4119V138.803ZM40.4011 138.803H39.1781V139.632H40.4011V138.803ZM38.3697 138.803H37.1467V139.632H38.3697V138.803ZM36.3382 138.803H35.1359V139.632H36.3382V138.803ZM34.3068 138.803H33.1045V139.632H34.3068V138.803ZM32.296 138.803H31.073V139.632H32.296V138.803ZM30.2646 138.803H29.0415V139.632H30.2646V138.803ZM28.2331 138.803H27.0308V139.632H28.2331V138.803ZM26.2224 138.803H24.9994V139.632H26.2224V138.803ZM24.1909 138.803H22.9679V139.632H24.1909V138.803ZM22.1595 138.803H20.9364L20.9572 139.632H22.1595V138.803ZM20.128 138.803H18.9257V139.632H20.128V138.803ZM18.1173 138.803H16.8943V139.632H18.1173V138.803ZM16.0858 138.803H15.4639C15.2774 138.803 15.0908 138.803 14.925 138.782L14.8213 139.611C15.0286 139.632 15.2567 139.632 15.4639 139.632H16.0858V138.803ZM14.1787 138.637C13.8263 138.533 13.4739 138.388 13.1423 138.201L12.7484 138.927C13.1423 139.134 13.5361 139.321 13.9714 139.424L14.1787 138.637ZM12.5204 137.787C12.2302 137.538 11.9607 137.269 11.7327 136.958L11.1108 137.476C11.3803 137.828 11.6912 138.16 12.0229 138.429L12.5204 137.787ZM11.3388 136.336C11.173 136.004 11.0486 135.631 10.9657 135.258L10.178 135.444C10.2609 135.9 10.4268 136.315 10.634 136.709L11.3388 136.336ZM10.8621 134.512C10.8621 134.449 10.8621 134.387 10.8621 134.325V133.289H10.0536V134.325C10.0536 134.408 10.0536 134.47 10.0536 134.553L10.8621 134.512ZM10.8621 132.459V131.195H10.0536V132.459H10.8621ZM10.8621 130.366V129.122H10.0536V130.366H10.8621ZM10.8621 128.293V127.049H10.0536V128.293H10.8621ZM10.8621 126.22V124.955H10.0536V126.22H10.8621ZM10.8621 124.126V122.883H10.0536V124.126H10.8621ZM10.8621 122.053V120.81H10.0536V122.053H10.8621ZM10.8621 119.96V118.716H10.0536V119.96H10.8621ZM10.8621 117.887V116.643H10.0536V117.887H10.8621ZM10.8621 115.814V114.549H10.0536V115.814H10.8621ZM10.8621 113.72V112.476H10.0536V113.72H10.8621ZM10.8621 111.647V110.404H10.0536V111.647H10.8621ZM10.8621 109.554V108.31H10.0536V109.554H10.8621ZM10.8621 107.481V106.237H10.0536V107.481H10.8621ZM10.8621 105.408V104.143H10.0536V105.408H10.8621ZM10.8621 103.314V102.07H10.0536V103.314H10.8621ZM10.8621 101.241V99.9975H10.0536V101.241H10.8621ZM10.8621 99.1476V97.9039H10.0536V99.1476H10.8621ZM10.8621 97.0747V95.831H10.0329V97.0747H10.8621ZM10.8621 95.0018V93.7373L10.0329 93.7581V95.0018H10.8621ZM10.8621 92.9082V91.6644H10.0329V92.9082H10.8621ZM10.8621 90.8352V89.5915H10.0329V90.8352H10.8621ZM10.8621 88.7623V87.4978H10.0329V88.7623H10.8621ZM10.8621 86.6687V85.4249H10.0329V86.6687H10.8621ZM10.8413 84.5958V83.5386C10.8413 83.4764 10.8621 83.4142 10.8621 83.352L10.0536 83.3313C10.0329 83.3935 10.0329 83.4764 10.0329 83.5386V84.5958H10.8621H10.8413ZM10.945 82.6058C11.0279 82.2326 11.1523 81.8802 11.3388 81.5486L10.6133 81.1547C10.406 81.5486 10.2609 81.9839 10.1573 82.4192L10.945 82.6058ZM11.7327 80.906C11.9607 80.6158 12.2302 80.3256 12.5204 80.0975L12.0229 79.4342C11.6705 79.7244 11.3596 80.0353 11.0901 80.4085L11.7327 80.906ZM13.1423 79.683C13.4532 79.4964 13.8056 79.3513 14.1787 79.2476L13.9507 78.4392C13.5361 78.5636 13.1216 78.7294 12.7484 78.9367L13.1423 79.683ZM14.9043 79.1025C15.0908 79.0818 15.2774 79.0611 15.4639 79.0611H16.0651V78.2319H15.4639C15.2359 78.2319 15.0286 78.2526 14.8006 78.2734L14.9043 79.1025ZM16.8735 79.0611H18.0965V78.2319H16.8735V79.0611ZM18.905 79.0611H20.128V78.2319H18.905V79.0611ZM20.9364 79.0611H22.1387V78.2319H20.9364V79.0611ZM22.9472 79.0611H24.1702V78.2319H22.9472V79.0611ZM24.9786 79.0611H26.2017V78.2319H24.9786V79.0611ZM27.0101 79.0611H28.2331V78.2319H27.0101V79.0611ZM29.0415 79.0611H30.2438V78.2319H29.0415V79.0611ZM31.0523 79.0611H32.2753V78.2319H31.0523V79.0611ZM33.0837 79.0611H34.3068V78.2319H33.0837V79.0611ZM35.1152 79.0611H36.3175V78.2319H35.1152V79.0611ZM37.1467 79.0611H38.3489V78.2319H37.1467V79.0611ZM39.1574 79.0611H40.3804V78.2319H39.1574V79.0611ZM41.1888 79.0611H42.4119V78.2319H41.1888V79.0611ZM43.2203 79.0611H44.4226V78.2319H43.2203V79.0611ZM45.231 79.0611H46.454V78.2319H45.231V79.0611ZM47.2625 79.0611H48.4855V78.2319H47.2625V79.0611ZM49.2939 79.0611H50.4962V78.2319H49.2939V79.0611ZM51.3047 79.0611H52.5277V78.2319H51.3047V79.0611ZM53.3361 79.0611H54.5592V78.2319H53.3361V79.0611ZM55.3676 79.0611H56.5906V78.2319H55.3676V79.0611ZM57.399 79.0611H58.6013V78.2319H57.399V79.0611ZM59.4098 79.0611H60.6328V78.2319H59.4098V79.0611ZM61.4412 79.0611H62.6643V78.2319H61.4412V79.0611ZM63.4727 79.0611H64.675V78.2319H63.4727V79.0611ZM65.4834 79.0611H66.7064V78.2319H65.4834V79.0611ZM67.5149 79.0611H68.7379V78.2319H67.5149V79.0611ZM69.5463 79.0611H70.7486V78.2319H69.5463V79.0611ZM71.5778 79.0611H72.7801V78.2319H71.5778V79.0611ZM73.5885 79.0611H74.8115V78.2319H73.5885V79.0611ZM75.62 79.0611H76.843V78.2319H75.62V79.0611ZM77.6514 79.0611H78.8537V78.2112L77.6514 78.2319V79.0611ZM79.6622 79.0611H80.8852V78.2112H79.6622V79.0611ZM81.6936 79.0611H82.9166V78.2112H81.6936V79.0611ZM83.7251 79.0611H84.9274V78.2112H83.7251V79.0611ZM85.7565 79.0611H86.9588V78.2112H85.7565V79.0611ZM87.7673 79.0611H88.9903V78.2112H87.7673V79.0611ZM89.7987 79.0611H91.0218V78.2112H89.7987V79.0611ZM91.8302 79.0611H93.0325V78.2112H91.8302V79.0611ZM93.8409 79.0611H95.0639V78.2112H93.8409V79.0611ZM95.8724 79.0611H97.0954V78.2112H95.8724V79.0611ZM97.9038 79.0403H99.1061V78.2112H97.9038V79.0403ZM99.8938 79.0611C100.288 79.1025 100.64 79.1647 100.992 79.2891L101.241 78.4807C100.827 78.3563 100.391 78.2734 99.956 78.2319L99.8938 79.0611ZM101.677 79.5586C102.029 79.7451 102.34 79.9524 102.609 80.2012L103.148 79.5586C102.817 79.2684 102.444 79.0196 102.05 78.8123L101.677 79.5586ZM103.148 80.7401C103.376 81.0303 103.584 81.3413 103.749 81.6937L104.475 81.3413C104.288 80.9267 104.04 80.5328 103.77 80.2012L103.148 80.7401ZM103.998 82.3985C104.102 82.7509 104.143 83.124 104.143 83.5178H104.952C104.952 83.0618 104.89 82.6058 104.786 82.1705L103.998 82.3985ZM104.143 85.6115H104.952V84.347H104.143V85.6115ZM104.143 86.4407V87.6844H104.952V86.4407H104.143ZM104.143 88.5136V89.7573H104.952V88.5136H104.143ZM104.143 91.851H104.952V90.6072H104.143V91.851ZM104.143 92.6801V93.9239H104.952V92.6801H104.143ZM104.143 94.7531V96.0175H104.952V94.7531H104.143ZM104.143 96.8467V98.0905H104.972L104.952 96.8467H104.143ZM104.143 98.9196V100.163H104.972V98.9196H104.143ZM104.143 102.257H104.972V100.993H104.143V102.257ZM104.143 103.086V104.33H104.972V103.086H104.143ZM104.143 105.159V106.403H104.972V105.159H104.143ZM104.143 107.253L104.164 108.496H104.972V107.253H104.143ZM104.164 109.326V110.569H104.972V109.326H104.164ZM104.164 111.399V112.663H104.972V111.399H104.164ZM104.164 113.492V114.736H104.972V113.492H104.164ZM104.164 115.565V116.809H104.972V115.565H104.164ZM104.164 117.659V118.903H104.972V117.659H104.164ZM104.164 119.732V120.975H104.972V119.732H104.164ZM104.164 121.805V123.048H104.972V121.805H104.164ZM104.164 123.898V125.142H104.972V123.898H104.164ZM104.164 125.971V127.215H104.972V125.971H104.164ZM104.164 128.044V129.309H104.972V128.044H104.164ZM104.164 130.138V131.381H104.972V130.138H104.164ZM104.164 132.211V133.454H104.972V132.211H104.164ZM104.164 134.304V134.325C104.164 134.698 104.102 135.092 104.019 135.444L104.786 135.652C104.91 135.237 104.972 134.781 104.972 134.325V134.304H104.164Z" fill="#3D2316"/>
<path d="M88.0782 118.612C82.8545 118.612 78.6257 114.28 78.6257 108.932C78.6257 103.584 82.8545 99.2305 88.0575 99.2305H116.767V118.612H88.0782Z" fill="#6C3819"/>
<path d="M94.1311 108.994C94.1311 111.855 91.8717 114.197 89.0732 114.197C86.2955 114.176 84.0153 111.855 84.0153 108.994C84.0153 106.133 86.2748 103.812 89.0732 103.812C91.8717 103.812 94.1311 106.133 94.1311 108.994Z" fill="#5D6162"/>
<path d="M93.4678 108.31C93.4471 111.171 91.1876 113.492 88.4099 113.492C85.6115 113.492 83.352 111.171 83.352 108.31C83.352 105.429 85.6115 103.107 88.4099 103.107C91.1876 103.107 93.4471 105.429 93.4678 108.31Z" fill="#A7A5A6"/>
</svg>
