<svg width="45" height="40" viewBox="0 0 45 40" fill="none" xmlns="http://www.w3.org/2000/svg">
<path d="M43.8281 12.4219L32.5781 1.17188C30.2344 -1.17188 26.25 0.46875 26.25 3.82812V8.28125C22.8906 8.4375 19.6094 8.75 16.7969 9.6875C14.0625 10.5469 11.875 11.7969 10.3125 13.5156C8.4375 15.625 7.5 18.2031 7.5 21.25C7.5 26.0938 10.0781 30.0781 14.0625 32.5781C17.0312 34.4531 20.7812 31.6406 19.6094 28.2031C18.4375 24.5312 18.2812 22.7344 26.25 22.1094V26.25C26.25 29.6094 30.2344 31.25 32.5781 28.9062L43.8281 17.6562C45.3125 16.25 45.3125 13.8281 43.8281 12.4219ZM30 26.25V18.2031C19.9219 18.3594 12.9688 20 16.0938 29.375C13.75 27.9688 11.25 25.3906 11.25 21.25C11.25 12.7344 21.3281 11.9531 30 11.9531V3.75L41.25 15L30 26.25ZM31.875 32.8906C31.4844 32.9688 31.25 33.3594 31.25 33.8281V35.7812C31.25 36.0938 31.0156 36.25 30.7812 36.25H4.21875C3.90625 36.25 3.75 36.0938 3.75 35.7812V9.21875C3.75 8.98438 3.90625 8.75 4.21875 8.75H10.9375C11.0938 8.75 11.25 8.75 11.4062 8.67188C12.3438 8.125 13.2812 7.57812 14.375 7.1875C14.7656 7.03125 15 6.71875 15 6.32812V5.9375C15 5.46875 14.5312 5 14.0625 5H3.75C1.64062 5 0 6.71875 0 8.75V36.25C0 38.3594 1.64062 40 3.75 40H31.25C33.2812 40 35 38.3594 35 36.25V32.9688C35 32.2656 34.1406 31.7969 33.5156 32.1875C33.0469 32.5 32.5 32.7344 31.875 32.8906Z" fill="#BF1414"/>
</svg>
