<svg width="174" height="169" viewBox="0 0 174 169" fill="none" xmlns="http://www.w3.org/2000/svg">
<path d="M128.718 159.865C127.668 158.986 127.814 157.032 129.06 155.517C130.306 154.027 132.163 153.514 133.238 154.393C133.36 154.491 133.457 154.613 133.555 154.76C134.801 153.245 136.096 151.682 137.415 150.069C137.268 150.02 137.146 149.923 137 149.825C135.949 148.946 136.096 146.991 137.342 145.501C138.588 143.986 140.469 143.473 141.519 144.353C141.641 144.475 141.739 144.597 141.837 144.719C142.789 143.571 143.742 142.399 144.719 141.226C144.573 141.177 144.426 141.079 144.304 140.982C143.254 140.102 143.4 138.172 144.646 136.658C145.892 135.143 147.749 134.63 148.823 135.534C148.946 135.632 149.043 135.729 149.117 135.851C150.24 134.508 151.364 133.14 152.463 131.772C152.341 131.698 152.219 131.65 152.097 131.552C151.047 130.672 151.193 128.718 152.439 127.203C153.685 125.713 155.566 125.2 156.616 126.08C156.714 126.177 156.812 126.275 156.885 126.373C157.984 125.005 159.108 123.637 160.208 122.293C160.085 122.244 159.988 122.195 159.89 122.122C158.839 121.218 158.986 119.288 160.232 117.774C161.478 116.259 163.334 115.771 164.409 116.65C164.483 116.699 164.532 116.772 164.605 116.845C165.582 115.624 166.535 114.427 167.512 113.23C167.439 113.181 167.39 113.157 167.316 113.108C166.266 112.228 166.413 110.298 167.658 108.784C168.904 107.269 170.761 106.781 171.836 107.66L171.885 107.733C172.398 107.074 172.911 106.439 173.399 105.828C161.453 97.2776 171.64 84.33 171.64 84.33L70.1854 0C70.1854 0 57.8975 16.0501 47.6372 5.47217C47.344 5.78975 47.0509 6.15619 46.7577 6.52263C47.6616 7.45094 47.4906 9.25871 46.2936 10.7C45.0965 12.1658 43.3132 12.6788 42.2383 11.9215C41.2856 13.0453 40.3084 14.2179 39.2824 15.4393C40.2595 16.3676 40.0885 18.2243 38.867 19.69C37.6456 21.1802 35.8378 21.6932 34.7629 20.8626C33.6636 22.1574 32.5643 23.501 31.4405 24.8446C32.4666 25.7241 32.32 27.654 31.0741 29.1442C29.8526 30.6344 27.9716 31.1474 26.9211 30.2679C25.8218 31.5871 24.7225 32.9307 23.6231 34.2499C24.6736 35.1294 24.527 37.0837 23.2811 38.5739C22.0352 40.0885 20.1786 40.6015 19.1037 39.6976C18.1754 40.8458 17.2227 41.9696 16.3188 43.0933C17.3692 43.9728 17.2227 45.9027 15.9768 47.4173C14.7553 48.9075 12.8987 49.4205 11.8238 48.5655C10.529 50.1534 9.25871 51.6924 8.08611 53.1582C9.08771 54.0621 8.9167 55.9676 7.69524 57.4578C6.4982 58.8991 4.73928 59.4121 3.66439 58.6548C3.17581 59.2411 2.73608 59.8274 2.29635 60.3648C12.6788 69.2327 0 82.6444 0 82.6444L103.776 168.88C103.776 168.88 115.429 153.685 127.032 162.65C127.717 161.82 128.425 160.965 129.133 160.11C128.987 160.036 128.84 159.963 128.718 159.865Z" fill="#FFBD59"/>
<path d="M15.6836 47.7349C15.7813 47.6372 15.9035 47.5394 15.9768 47.4173C15.9035 47.515 15.8058 47.6127 15.7081 47.7104L15.6836 47.7349ZM19.3969 39.9175C19.2992 39.8442 19.2014 39.7953 19.1037 39.6976C19.2014 39.7953 19.2992 39.8442 19.4213 39.8931C19.4213 39.8931 19.4213 39.9175 19.3969 39.9175Z" fill="#BDBCBD"/>
<path d="M15.7081 47.7105C15.8058 47.6127 15.9035 47.515 15.9768 47.4173C16.6852 46.5867 17.0273 45.634 17.0273 44.7789C17.0273 44.0949 16.783 43.4842 16.3188 43.0933C17.2227 41.9696 18.1754 40.8458 19.1037 39.6976C19.2015 39.7953 19.2992 39.8442 19.3969 39.9175C18.7862 40.6748 18.151 41.4321 17.5158 42.1894C18.5907 43.0689 18.4442 45.0232 17.1983 46.5134C16.7585 47.0509 16.2455 47.4417 15.7081 47.7105Z" fill="#FFDE59"/>
<path d="M30.7809 29.4618C30.8787 29.3397 30.9764 29.2664 31.0741 29.1442C30.9764 29.2419 30.9031 29.3397 30.8054 29.4374C30.8054 29.4374 30.8054 29.4374 30.7809 29.4618ZM35.0561 21.0581C34.9584 21.0093 34.8606 20.936 34.7629 20.8627C34.8606 20.936 34.9584 20.9848 35.0805 21.0337C35.0561 21.0581 35.0561 21.0581 35.0561 21.0581Z" fill="#BDBCBD"/>
<path d="M30.8054 29.4374C30.9031 29.3396 30.9764 29.2419 31.0741 29.1442C31.7826 28.3136 32.1246 27.3364 32.1246 26.5058C32.1246 25.8218 31.9047 25.2355 31.4405 24.8446C32.5643 23.501 33.6636 22.1574 34.7629 20.8627C34.8607 20.936 34.9584 21.0092 35.0561 21.0581C34.2744 22.0109 33.4682 22.9636 32.6376 23.9408C33.6636 24.8446 33.517 26.7501 32.2956 28.2403C31.8559 28.7778 31.3428 29.1686 30.8054 29.4374Z" fill="#FFDE59"/>
<path d="M7.40207 57.7753C7.49979 57.6532 7.5975 57.5555 7.69523 57.4578C7.62194 57.5555 7.52422 57.6532 7.4265 57.7509C7.4265 57.7509 7.40207 57.7509 7.40207 57.7753ZM12.1414 48.7609C12.0436 48.7121 11.9459 48.6388 11.8482 48.5655C11.9459 48.6388 12.0436 48.6876 12.1414 48.7609Z" fill="#BDBCBD"/>
<path d="M7.42651 57.7509C7.52423 57.6532 7.62195 57.5555 7.69524 57.4578C8.37925 56.6272 8.74569 55.65 8.74569 54.8194C8.74569 54.1598 8.52583 53.5735 8.08611 53.1582C9.25871 51.6924 10.529 50.1534 11.8238 48.5655H11.8482C11.9459 48.6388 12.0437 48.7121 12.1414 48.7609C11.1642 49.958 10.187 51.155 9.28314 52.2787C10.2847 53.1826 10.1382 55.0637 8.9167 56.5539C8.47698 57.0913 7.96396 57.4822 7.42651 57.7509Z" fill="#FFDE59"/>
<path d="M22.988 38.8915C23.0857 38.7937 23.1834 38.7205 23.2567 38.5983C23.1834 38.696 23.0857 38.7937 23.0124 38.867C23.0124 38.8915 22.988 38.8915 22.988 38.8915ZM27.2143 30.4634C27.1166 30.4145 27.0188 30.3656 26.9211 30.2924C27.0188 30.3656 27.1166 30.4145 27.2387 30.4634C27.2143 30.4634 27.2143 30.4634 27.2143 30.4634Z" fill="#BDBCBD"/>
<path d="M23.0124 38.8671C23.0857 38.7938 23.1834 38.6961 23.2567 38.5983C23.2567 38.5983 23.2811 38.5984 23.2811 38.5739C23.9652 37.7433 24.3316 36.7906 24.3316 35.9355C24.3316 35.2515 24.0873 34.6408 23.6231 34.2499C24.7225 32.9307 25.8218 31.5871 26.9211 30.2679V30.2924C27.0188 30.3657 27.1166 30.4145 27.2143 30.4634C26.4325 31.4406 25.6264 32.3933 24.8202 33.346C25.8707 34.2499 25.7485 36.1798 24.5026 37.6945C24.0629 38.2075 23.5499 38.6228 23.0124 38.8671Z" fill="#FFDE59"/>
<path d="M65.0309 5.10572C68.0846 2.71165 70.1122 0.0977172 70.1855 0C70.1122 0.0977172 68.109 2.71165 65.0553 5.10572C65.0553 5.10572 65.0553 5.10572 65.0309 5.10572Z" fill="#BDBCBD"/>
<path d="M65.0561 5.10572C68.1098 2.71165 70.113 0.0977172 70.1863 0L70.455 0.244287C69.3801 1.44133 67.4746 3.4201 65.0561 5.10572Z" fill="#FFDE59"/>
<path d="M46.0004 11.0176C46.0981 10.9199 46.1958 10.8222 46.2935 10.7C46.2203 10.8222 46.1225 10.9199 46.0248 11.0176H46.0004ZM48.2968 6.10733C48.0769 5.88746 47.857 5.69203 47.6372 5.47217C47.857 5.6676 48.0525 5.86304 48.2723 6.05847C48.2723 6.0829 48.2968 6.0829 48.2968 6.10733Z" fill="#BDBCBD"/>
<path d="M46.0248 11.0176C46.1226 10.9199 46.2203 10.8222 46.2936 10.7C46.9776 9.86945 47.3196 8.94113 47.3196 8.08611C47.344 7.47537 47.1486 6.9135 46.7577 6.52263C47.0509 6.15619 47.344 5.78975 47.6372 5.47217C47.857 5.69203 48.0769 5.88746 48.2968 6.10733C48.7853 7.10893 48.5166 8.59912 47.515 9.82059C47.0753 10.3336 46.5623 10.7489 46.0248 11.0176Z" fill="#FFDE59"/>
<path d="M38.5739 20.0076C38.6716 19.9099 38.7693 19.8122 38.8671 19.69C38.7938 19.8122 38.6961 19.9099 38.5983 20.0076H38.5739ZM42.5559 12.0925C42.4337 12.0437 42.336 11.9704 42.2383 11.9215C42.336 11.9704 42.4582 12.0192 42.5559 12.0681C42.5559 12.0925 42.5559 12.0925 42.5559 12.0925Z" fill="#BDBCBD"/>
<path d="M38.5983 20.0076C38.696 19.9099 38.7938 19.8122 38.867 19.69C39.5511 18.8594 39.9175 17.9067 39.9175 17.0761C39.9175 16.4165 39.6976 15.8546 39.2823 15.4393C40.3084 14.2179 41.2856 13.0453 42.2383 11.9215C42.336 11.9704 42.4337 12.0437 42.5559 12.0925C41.8719 12.8987 41.1878 13.7048 40.4794 14.5599C41.4566 15.4638 41.2856 17.3448 40.0885 18.8106C39.6488 19.348 39.1358 19.7389 38.5983 20.0076Z" fill="#FFDE59"/>
<path d="M153.954 126.006C153.954 126.006 153.954 126.006 153.954 125.982C154.418 125.762 154.882 125.64 155.346 125.64C155.713 125.64 156.055 125.738 156.348 125.909C156.055 125.738 155.713 125.64 155.346 125.64C154.906 125.64 154.418 125.762 153.954 126.006Z" fill="#BDBCBD"/>
<path d="M156.885 126.373C156.812 126.275 156.714 126.178 156.616 126.08C156.543 126.007 156.445 125.958 156.348 125.909C156.055 125.738 155.713 125.64 155.346 125.64C154.882 125.64 154.418 125.762 153.954 125.982C154.735 125.2 155.712 124.761 156.568 124.761C157.032 124.761 157.471 124.907 157.813 125.2H157.838C157.52 125.591 157.203 125.982 156.885 126.373Z" fill="#FFDE59"/>
<path d="M103.776 168.88L0 82.6444L103.776 168.88C103.776 168.88 104.118 168.44 104.729 167.756V167.781C104.118 168.44 103.776 168.88 103.776 168.88ZM4.00641 58.8502C3.88426 58.8014 3.76211 58.7281 3.66439 58.6548C3.76211 58.7281 3.88426 58.8014 4.00641 58.8502Z" fill="#BDBCBD"/>
<path d="M103.776 168.88L0 82.6444C0 82.6444 6.37605 75.8775 6.37605 68.793C6.37605 65.9103 5.32559 62.9543 2.29635 60.3648C2.73608 59.8274 3.17581 59.2411 3.66439 58.6548C3.76211 58.7281 3.88426 58.8014 4.00641 58.8502C3.8354 59.0457 3.6644 59.29 3.51782 59.4854C13.9003 68.3532 1.19703 81.7405 1.19703 81.7405L104.729 167.781C104.118 168.44 103.776 168.88 103.776 168.88Z" fill="#FFDE59"/>
<path d="M171.885 107.733L171.836 107.66C171.494 107.367 171.03 107.22 170.566 107.22C170.101 107.22 169.637 107.342 169.149 107.587C169.173 107.562 169.173 107.562 169.173 107.562C169.637 107.342 170.101 107.22 170.566 107.22C171.03 107.22 171.494 107.367 171.836 107.66L171.885 107.733C171.934 107.684 171.958 107.636 172.007 107.587C171.958 107.636 171.934 107.684 171.885 107.733ZM172.691 106.707C172.715 106.683 172.764 106.634 172.789 106.61C172.764 106.634 172.715 106.683 172.691 106.707Z" fill="#BDBCBD"/>
<path d="M171.886 107.733L171.837 107.66C171.495 107.367 171.031 107.22 170.566 107.22C170.102 107.22 169.638 107.342 169.174 107.562C169.956 106.781 170.908 106.341 171.739 106.341C172.13 106.341 172.472 106.439 172.789 106.61C172.765 106.634 172.716 106.683 172.692 106.707C172.472 107 172.252 107.294 172.008 107.587C171.959 107.636 171.934 107.684 171.886 107.733Z" fill="#FFDE59"/>
<path d="M149.117 135.852C149.043 135.729 148.946 135.632 148.823 135.534C148.457 135.241 148.017 135.094 147.553 135.094C147.089 135.094 146.625 135.216 146.136 135.436H146.161C146.625 135.216 147.089 135.094 147.529 135.094C148.017 135.094 148.457 135.241 148.823 135.534C148.946 135.632 149.043 135.729 149.117 135.852Z" fill="#BDBCBD"/>
<path d="M149.117 135.851C149.043 135.729 148.946 135.632 148.823 135.534C148.457 135.241 148.017 135.094 147.529 135.094C147.089 135.094 146.625 135.216 146.161 135.436C146.942 134.63 147.92 134.215 148.75 134.215C149.239 134.215 149.678 134.337 150.02 134.63L150.069 134.703C149.752 135.07 149.434 135.461 149.117 135.851Z" fill="#FFDE59"/>
<path d="M161.747 116.577C161.747 116.552 161.747 116.552 161.747 116.552C162.211 116.332 162.675 116.21 163.139 116.21C163.505 116.21 163.872 116.308 164.165 116.479C163.872 116.308 163.505 116.21 163.139 116.21C162.699 116.21 162.211 116.332 161.747 116.577Z" fill="#BDBCBD"/>
<path d="M164.605 116.846C164.532 116.772 164.483 116.699 164.409 116.65C164.336 116.577 164.263 116.528 164.165 116.479C163.872 116.308 163.505 116.21 163.139 116.21C162.675 116.21 162.211 116.333 161.747 116.552C162.528 115.771 163.481 115.331 164.336 115.331C164.776 115.331 165.191 115.453 165.533 115.697C165.216 116.088 164.898 116.455 164.605 116.846Z" fill="#FFDE59"/>
<path d="M109.908 163.163C109.981 163.115 110.03 163.066 110.103 163.017C112.668 161.282 115.819 159.817 119.24 159.817C121.756 159.817 124.394 160.598 127.033 162.65C124.394 160.598 121.756 159.817 119.24 159.817C115.746 159.817 112.521 161.356 109.908 163.163Z" fill="#BDBCBD"/>
<path d="M110.103 163.017C112.839 160.916 116.455 158.962 120.437 158.962C122.831 158.962 125.396 159.67 127.936 161.551C127.643 161.918 127.326 162.284 127.032 162.651C124.394 160.598 121.756 159.817 119.24 159.817C115.819 159.817 112.668 161.282 110.103 163.017Z" fill="#FFDE59"/>
<path d="M138.856 144.28C139.32 144.035 139.809 143.938 140.249 143.938C140.64 143.938 141.006 144.011 141.299 144.206C141.006 144.011 140.64 143.938 140.249 143.938C139.809 143.938 139.32 144.06 138.856 144.28Z" fill="#BDBCBD"/>
<path d="M141.837 144.719C141.739 144.597 141.641 144.475 141.519 144.353C141.446 144.304 141.397 144.255 141.299 144.206C141.006 144.011 140.64 143.938 140.249 143.938C139.809 143.938 139.32 144.035 138.856 144.28C139.638 143.473 140.615 143.034 141.446 143.034C141.934 143.034 142.374 143.18 142.741 143.473L142.789 143.547C142.472 143.938 142.154 144.328 141.837 144.719Z" fill="#FFDE59"/>
<path d="M133.555 154.76C133.457 154.613 133.36 154.491 133.238 154.393C133.36 154.491 133.457 154.613 133.555 154.76C133.873 154.369 134.19 153.978 134.532 153.587C134.215 153.978 133.873 154.369 133.555 154.76ZM130.575 154.32V154.296C131.039 154.076 131.503 153.954 131.943 153.954C132.382 153.954 132.798 154.076 133.115 154.296C132.798 154.076 132.382 153.954 131.967 153.954C131.503 153.954 131.039 154.076 130.575 154.32ZM133.115 154.32C133.115 154.32 133.115 154.32 133.115 154.296C133.115 154.32 133.115 154.32 133.115 154.32Z" fill="#BDBCBD"/>
<path d="M133.555 154.76C133.457 154.613 133.36 154.491 133.238 154.393C133.213 154.369 133.164 154.344 133.115 154.32C133.115 154.32 133.115 154.32 133.115 154.296C132.798 154.076 132.382 153.954 131.943 153.954C131.503 153.954 131.039 154.076 130.575 154.296C131.356 153.514 132.334 153.074 133.164 153.074C133.653 153.074 134.093 153.221 134.435 153.514L134.532 153.587C134.19 153.978 133.873 154.369 133.555 154.76Z" fill="#FFDE59"/>
<path d="M162.089 88.3852L162.382 88.6295L162.602 88.3364L162.333 88.0921L162.089 88.3852L162.675 88.8738L163.139 88.2875L162.553 87.8234L162.089 88.3852Z" fill="#F4F4F4"/>
<path d="M161.6 88.9716L161.111 89.5579L161.698 90.0465L162.186 89.4602L161.6 88.9716ZM160.647 90.1442L160.159 90.7305L160.745 91.2191L161.209 90.6328L160.647 90.1442ZM159.67 91.3168L159.206 91.9031L159.768 92.3673L160.256 91.781L159.67 91.3168ZM158.717 92.465L158.229 93.0513L158.815 93.5399L159.304 92.9536L158.717 92.465ZM157.74 93.6376L157.276 94.2239L157.862 94.7125L158.326 94.1262L157.74 93.6376ZM156.787 94.8102L156.299 95.3965L156.885 95.8607L157.374 95.2988L156.787 94.8102ZM155.835 95.9584L155.346 96.5447L155.932 97.0333L156.421 96.447L155.835 95.9584ZM154.857 97.131L154.393 97.7173L154.955 98.2059L155.444 97.6196L154.857 97.131ZM153.905 98.3036L153.416 98.8899L154.002 99.3541L154.491 98.7922L153.905 98.3036ZM152.928 99.4762L152.463 100.038L153.05 100.527L153.514 99.9404L152.928 99.4762ZM151.975 100.624L151.486 101.211L152.073 101.699L152.561 101.113L151.975 100.624ZM151.022 101.797L150.533 102.383L151.12 102.872L151.608 102.286L151.022 101.797ZM150.045 102.97L149.581 103.556L150.143 104.02L150.631 103.434L150.045 102.97ZM149.092 104.118L148.604 104.704L149.19 105.193L149.678 104.606L149.092 104.118ZM148.139 105.29L147.651 105.877L148.237 106.365L148.701 105.779L148.139 105.29ZM147.162 106.463L146.674 107.049L147.26 107.513L147.749 106.952L147.162 106.463ZM146.21 107.611L145.721 108.197L146.307 108.686L146.796 108.1L146.21 107.611ZM145.232 108.784L144.768 109.37L145.33 109.859L145.819 109.272L145.232 108.784ZM144.28 109.956L143.791 110.543L144.377 111.007L144.866 110.445L144.28 109.956ZM143.327 111.129L142.838 111.691L143.425 112.179L143.889 111.593L143.327 111.129ZM142.35 112.277L141.886 112.863L142.447 113.352L142.936 112.766L142.35 112.277ZM141.397 113.45L140.908 114.036L141.495 114.525L141.983 113.938L141.397 113.45ZM140.42 114.622L139.956 115.209L140.542 115.673L141.006 115.087L140.42 114.622ZM139.467 115.771L138.978 116.357L139.565 116.845L140.053 116.259L139.467 115.771ZM138.514 116.943L138.026 117.529L138.612 118.018L139.076 117.432L138.514 116.943ZM137.537 118.116L137.073 118.702L137.635 119.166L138.123 118.604L137.537 118.116ZM136.584 119.288L136.096 119.85L136.682 120.339L137.171 119.753L136.584 119.288ZM135.607 120.437L135.143 121.023L135.729 121.511L136.193 120.925L135.607 120.437ZM134.654 121.609L134.166 122.195L134.752 122.684L135.241 122.098L134.654 121.609ZM133.702 122.782L133.213 123.344L133.799 123.832L134.264 123.246L133.702 122.782ZM132.725 123.93L132.26 124.516L132.822 125.005L133.311 124.419L132.725 123.93ZM131.772 125.103L131.283 125.689L131.869 126.177L132.358 125.591L131.772 125.103ZM130.795 126.275L130.33 126.861L130.917 127.326L131.381 126.764L130.795 126.275ZM129.842 127.423L129.353 128.01L129.94 128.498L130.428 127.912L129.842 127.423ZM128.889 128.596L128.401 129.182L128.987 129.671L129.475 129.085L128.889 128.596ZM127.912 129.769L127.448 130.355L128.01 130.819L128.498 130.257L127.912 129.769ZM126.959 130.941L126.471 131.503L127.057 131.992L127.546 131.405L126.959 130.941ZM125.982 132.089L125.518 132.676L126.104 133.164L126.568 132.578L125.982 132.089ZM125.029 133.262L124.541 133.848L125.127 134.337L125.616 133.751L125.029 133.262ZM124.077 134.435L123.588 134.996L124.174 135.485L124.663 134.899L124.077 134.435ZM123.099 135.583L122.635 136.169L123.197 136.658L123.686 136.071L123.099 135.583ZM122.147 136.755L121.658 137.342L122.244 137.83L122.733 137.244L122.147 136.755ZM121.194 137.928L120.705 138.514L121.292 138.978L121.756 138.392L121.194 137.928ZM120.217 139.076L119.753 139.662L120.314 140.151L120.803 139.565L120.217 139.076ZM119.264 140.249L118.775 140.835L119.362 141.324L119.85 140.737L119.264 140.249ZM118.287 141.421L117.823 142.008L118.409 142.472L118.873 141.91L118.287 141.421ZM117.334 142.594L116.845 143.156L117.432 143.644L117.92 143.058L117.334 142.594ZM116.381 143.742L115.893 144.328L116.479 144.817L116.943 144.231L116.381 143.742ZM115.404 144.915L114.94 145.501L115.502 145.99L115.99 145.403L115.404 144.915ZM114.451 146.087L113.963 146.674L114.549 147.138L115.038 146.552L114.451 146.087ZM113.474 147.236L113.01 147.822L113.596 148.31L114.061 147.724L113.474 147.236ZM112.521 148.408L112.033 148.994L112.619 149.483L113.108 148.897L112.521 148.408ZM111.569 149.581L111.08 150.167L111.666 150.631L112.131 150.069L111.569 149.581ZM110.592 150.729L110.127 151.315L110.689 151.804L111.178 151.218L110.592 150.729ZM109.639 151.902L109.15 152.488L109.737 152.976L110.225 152.39L109.639 151.902ZM108.662 153.074L108.197 153.66L108.784 154.149L109.248 153.563L108.662 153.074ZM107.709 154.247L107.22 154.809L107.807 155.297L108.295 154.711L107.709 154.247ZM106.756 155.395L106.268 155.981L106.854 156.47L107.318 155.884L106.756 155.395ZM105.779 156.568L105.315 157.154L105.877 157.642L106.365 157.056L105.779 156.568Z" fill="#F4F4F4"/>
<path d="M104.826 157.74L104.582 158.033L104.875 158.278L105.119 157.984L104.826 157.74L104.338 158.326L104.631 158.546L104.924 158.791L105.413 158.204L104.826 157.74Z" fill="#F4F4F4"/>
<path d="M104.24 157.252L103.678 156.763L103.189 157.349L103.776 157.838L104.24 157.252ZM103.092 156.299L102.505 155.81L102.041 156.397L102.603 156.885L103.092 156.299ZM101.944 155.322L101.357 154.857L100.869 155.444L101.455 155.908L101.944 155.322ZM100.771 154.369L100.209 153.88L99.7205 154.467L100.307 154.955L100.771 154.369ZM99.6228 153.416L99.0365 152.928L98.5723 153.514L99.1342 154.002L99.6228 153.416ZM98.4746 152.439L97.8883 151.975L97.3997 152.561L97.986 153.025L98.4746 152.439ZM97.302 151.486L96.7401 150.998L96.2515 151.584L96.8379 152.073L97.302 151.486ZM96.1538 150.533L95.5675 150.045L95.1034 150.631L95.6652 151.12L96.1538 150.533ZM95.0057 149.556L94.4193 149.092L93.9308 149.678L94.5171 150.143L95.0057 149.556ZM93.833 148.604L93.2712 148.139L92.7826 148.701L93.3689 149.19L93.833 148.604ZM92.6849 147.651L92.0986 147.162L91.6344 147.749L92.1963 148.237L92.6849 147.651ZM91.5367 146.674L90.9504 146.209L90.4618 146.796L91.0481 147.26L91.5367 146.674ZM90.3641 145.721L89.8022 145.257L89.3136 145.819L89.8999 146.307L90.3641 145.721ZM89.2159 144.768L88.6296 144.28L88.1654 144.866L88.7273 145.354L89.2159 144.768ZM88.0677 143.815L87.4814 143.327L86.9928 143.913L87.5791 144.377L88.0677 143.815ZM86.8951 142.838L86.3332 142.374L85.8447 142.936L86.431 143.425L86.8951 142.838ZM85.7469 141.886L85.1851 141.397L84.6965 141.983L85.2584 142.472L85.7469 141.886ZM84.5988 140.933L84.0125 140.444L83.5239 141.03L84.1102 141.495L84.5988 140.933ZM83.4506 139.956L82.8643 139.491L82.3757 140.053L82.962 140.542L83.4506 139.956ZM82.278 139.003L81.7161 138.514L81.2275 139.101L81.7894 139.589L82.278 139.003ZM81.1298 138.05L80.5435 137.562L80.0549 138.148L80.6412 138.612L81.1298 138.05ZM79.9816 137.073L79.3953 136.609L78.9067 137.195L79.493 137.659L79.9816 137.073ZM78.809 136.12L78.2471 135.632L77.7586 136.218L78.3204 136.706L78.809 136.12ZM77.6608 135.167L77.0745 134.679L76.6104 135.265L77.1722 135.754L77.6608 135.167ZM76.5127 134.19L75.9264 133.726L75.4378 134.312L76.0241 134.777L76.5127 134.19ZM75.34 133.238L74.7782 132.749L74.2896 133.335L74.8759 133.824L75.34 133.238ZM74.1919 132.285L73.6056 131.796L73.1414 132.383L73.7033 132.871L74.1919 132.285ZM73.0437 131.308L72.4574 130.843L71.9688 131.43L72.5551 131.894L73.0437 131.308ZM71.8711 130.355L71.3092 129.866L70.8206 130.453L71.4069 130.941L71.8711 130.355ZM70.7229 129.402L70.1366 128.914L69.6724 129.5L70.2343 129.988L70.7229 129.402ZM69.5747 128.425L68.9884 127.961L68.4998 128.547L69.0861 129.011L69.5747 128.425ZM68.4021 127.472L67.8402 126.984L67.3517 127.57L67.938 128.059L68.4021 127.472ZM67.2539 126.519L66.6676 126.031L66.2035 126.617L66.7654 127.106L67.2539 126.519ZM66.1058 125.542L65.5195 125.078L65.0309 125.664L65.6172 126.129L66.1058 125.542ZM64.9332 124.59L64.3713 124.101L63.8827 124.687L64.469 125.176L64.9332 124.59ZM63.785 123.637L63.1987 123.148L62.7345 123.735L63.2964 124.223L63.785 123.637ZM62.6368 122.66L62.0505 122.195L61.5619 122.782L62.1482 123.246L62.6368 122.66ZM61.4642 121.707L60.9023 121.218L60.4137 121.805L61 122.293L61.4642 121.707ZM60.316 120.754L59.7541 120.266L59.2656 120.852L59.8274 121.34L60.316 120.754ZM59.1678 119.801L58.5815 119.313L58.0929 119.899L58.6792 120.363L59.1678 119.801ZM58.0196 118.824L57.4333 118.336L56.9448 118.922L57.5311 119.411L58.0196 118.824ZM56.847 117.871L56.2852 117.383L55.7966 117.969L56.3585 118.458L56.847 117.871ZM55.6989 116.919L55.1126 116.43L54.624 117.016L55.2103 117.481L55.6989 116.919ZM54.5507 115.942L53.9644 115.477L53.4758 116.039L54.0621 116.528L54.5507 115.942ZM53.3781 114.989L52.8162 114.5L52.3276 115.087L52.9139 115.575L53.3781 114.989ZM52.2299 114.036L51.6436 113.547L51.1794 114.134L51.7413 114.598L52.2299 114.036ZM51.0817 113.059L50.4954 112.595L50.0068 113.157L50.5931 113.645L51.0817 113.059ZM49.9091 112.106L49.3472 111.618L48.8587 112.204L49.445 112.692L49.9091 112.106ZM48.7609 111.153L48.1746 110.665L47.7105 111.251L48.2724 111.74L48.7609 111.153ZM47.6128 110.176L47.0265 109.712L46.5379 110.274L47.1242 110.763L47.6128 110.176ZM46.4402 109.224L45.8783 108.735L45.3897 109.321L45.976 109.81L46.4402 109.224ZM45.292 108.271L44.7057 107.782L44.2415 108.368L44.8034 108.857L45.292 108.271ZM44.1438 107.294L43.5575 106.829L43.0689 107.416L43.6552 107.88L44.1438 107.294ZM42.9712 106.341L42.4093 105.852L41.9207 106.439L42.507 106.927L42.9712 106.341ZM41.823 105.388L41.2367 104.9L40.7725 105.486L41.3344 105.974L41.823 105.388ZM40.6748 104.411L40.0885 103.947L39.5999 104.533L40.1862 104.997L40.6748 104.411ZM39.5022 103.458L38.9403 102.97L38.4518 103.556L39.0381 104.044L39.5022 103.458ZM38.354 102.505L37.7677 102.017L37.3036 102.603L37.8655 103.092L38.354 102.505ZM37.2059 101.528L36.6196 101.064L36.131 101.65L36.7173 102.115L37.2059 101.528ZM36.0333 100.576L35.4714 100.087L34.9828 100.673L35.5691 101.162L36.0333 100.576ZM34.8851 99.6228L34.3232 99.1342L33.8346 99.7205L34.3965 100.209L34.8851 99.6228ZM33.7369 98.6456L33.1506 98.1815L32.662 98.7678L33.2483 99.2319L33.7369 98.6456ZM32.5887 97.6929L32.0024 97.2043L31.5138 97.7906L32.1001 98.2792L32.5887 97.6929ZM31.4161 96.7401L30.8542 96.2515L30.3657 96.8378L30.9275 97.3264L31.4161 96.7401ZM30.2679 95.7874L29.6816 95.2988L29.2175 95.8851L29.7794 96.3493L30.2679 95.7874ZM29.1198 94.8102L28.5335 94.3461L28.0449 94.9079L28.6312 95.3965L29.1198 94.8102ZM27.9472 93.8575L27.3853 93.3689L26.8967 93.9552L27.483 94.4438L27.9472 93.8575ZM26.799 92.9047L26.2127 92.4161L25.7485 93.0024L26.3104 93.4666L26.799 92.9047ZM25.6508 91.9276L25.0645 91.4634L24.5759 92.0253L25.1622 92.5139L25.6508 91.9276ZM24.4782 90.9748L23.9163 90.4862L23.4277 91.0725L24.014 91.5611L24.4782 90.9748ZM23.33 90.0221L22.7437 89.5335L22.2795 90.1198L22.8414 90.5839L23.33 90.0221ZM22.1818 89.0449L21.5955 88.5807L21.1069 89.1426L21.6932 89.6312L22.1818 89.0449ZM21.0092 88.0921L20.4473 87.6036L19.9588 88.1899L20.5451 88.6785L21.0092 88.0921ZM19.861 87.1394L19.2747 86.6508L18.8106 87.2371L19.3725 87.7257L19.861 87.1394ZM18.7129 86.1622L18.1266 85.6981L17.638 86.2599L18.2243 86.7485L18.7129 86.1622ZM17.5403 85.2095L16.9784 84.7209L16.4898 85.3072L17.0761 85.7958L17.5403 85.2095ZM16.3921 84.2567L15.8058 83.7682L15.3416 84.3545L15.9035 84.843L16.3921 84.2567ZM15.2439 83.2796L14.6576 82.8154L14.169 83.4017L14.7553 83.8659L15.2439 83.2796ZM14.0713 82.3268L13.5094 81.8382L13.0208 82.4245L13.6071 82.9131L14.0713 82.3268ZM12.9231 81.3741L12.3368 80.8855L11.8727 81.4718L12.4345 81.9604" fill="#F4F4F4"/>
<path d="M11.7749 80.3969L11.1886 79.9327L10.7 80.4946L11.2863 80.9832L11.7749 80.3969Z" fill="#F4F4F4"/>
<path d="M12.2391 79.8107L12.7277 79.2488L12.1414 78.7602L11.6772 79.3465L12.2391 79.8107ZM13.2163 78.6625L13.7049 78.0762L13.1185 77.5876L12.63 78.1739L13.2163 78.6625ZM14.169 77.4899L14.6576 76.9036L14.0713 76.415L13.5827 77.0013L14.169 77.4899ZM15.1462 76.3173L15.6103 75.7554L15.0485 75.2668L14.5599 75.8531L15.1462 76.3173ZM16.0989 75.1691L16.5875 74.5828L16.0012 74.0942L15.5126 74.6805L16.0989 75.1691ZM17.0517 73.9965L17.5403 73.4102L16.954 72.9216L16.4898 73.5079L17.0517 73.9965ZM18.0288 72.8239L18.5174 72.2376L17.9311 71.7734L17.4425 72.3597L18.0288 72.8239ZM18.9816 71.6757L19.4702 71.0894L18.8839 70.6008L18.3953 71.1871L18.9816 71.6757ZM19.9588 70.5031L20.4229 69.9168L19.861 69.4282L19.3725 70.0145L19.9588 70.5031ZM20.9115 69.3305L21.4001 68.7442L20.8138 68.28L20.3252 68.8419L20.9115 69.3305ZM21.8642 68.1823L22.3528 67.596L21.7665 67.1074L21.3024 67.6937L21.8642 68.1823ZM22.8414 67.0097L23.33 66.4234L22.7437 65.9348L22.2551 66.5211L22.8414 67.0097ZM23.7942 65.8371L24.2828 65.2508L23.6965 64.7622L23.2079 65.3485L23.7942 65.8371ZM24.7713 64.6645L25.2355 64.1026L24.6736 63.614L24.185 64.2003L24.7713 64.6645ZM25.7241 63.5163L26.2127 62.93L25.6264 62.4414L25.1378 63.0277L25.7241 63.5163ZM26.6768 62.3437L27.1654 61.7574L26.5791 61.2688L26.115 61.8551L26.6768 62.3437ZM27.654 61.1711L28.1182 60.5848L27.5563 60.1206L27.0677 60.7069L27.654 61.1711ZM28.6068 60.0229L29.0953 59.4366L28.509 58.948L28.0205 59.5343L28.6068 60.0229ZM29.5839 58.8503L30.0481 58.264L29.4618 57.7754L28.9976 58.3617L29.5839 58.8503ZM30.5367 57.6777L31.0253 57.0914L30.4389 56.6272L29.9504 57.1891L30.5367 57.6777ZM31.4894 56.5295L31.978 55.9432L31.3917 55.4546L30.9275 56.0409L31.4894 56.5295ZM32.4666 55.3569L32.9307 54.7706L32.3689 54.282L31.8803 54.8683L32.4666 55.3569ZM33.4193 54.1843L33.9079 53.598L33.3216 53.1094L32.833 53.6957L33.4193 54.1843ZM34.3965 53.0117L34.8607 52.4254L34.2744 51.9612L33.8102 52.5475L34.3965 53.0117ZM35.3492 51.8635L35.8378 51.2772L35.2515 50.7886L34.7629 51.3749L35.3492 51.8635ZM36.302 50.6909L36.7906 50.1046L36.2043 49.616L35.7401 50.2023L36.302 50.6909ZM37.2792 49.5183L37.7433 48.932L37.1814 48.4678L36.6929 49.0297L37.2792 49.5183ZM38.2319 48.3701L38.7205 47.7838L38.1342 47.2952L37.6456 47.8815L38.2319 48.3701ZM39.2091 47.1975L39.6732 46.6112L39.0869 46.1226L38.6228 46.7089L39.2091 47.1975ZM40.1618 46.0249L40.6504 45.4386L40.0641 44.9744L39.5755 45.5363L40.1618 46.0249ZM41.1146 44.8523L41.6031 44.2904L41.0168 43.8018L40.5283 44.3881L41.1146 44.8523ZM42.0917 43.7041L42.5559 43.1178L41.994 42.6292L41.5054 43.2155L42.0917 43.7041ZM43.0445 42.5315L43.5331 41.9452L42.9468 41.4566L42.4582 42.0429L43.0445 42.5315ZM43.9972 41.3589L44.4858 40.797L43.8995 40.3084L43.4354 40.8947L43.9972 41.3589ZM44.9744 40.2107L45.463 39.6244L44.8767 39.1358L44.3881 39.7221L44.9744 40.2107ZM45.9271 39.0381L46.4157 38.4518L45.8294 37.9632L45.3408 38.5495L45.9271 39.0381ZM46.9043 37.8655L47.3685 37.2792L46.7822 36.815L46.318 37.3769L46.9043 37.8655ZM47.8571 36.7173L48.3457 36.131L47.7594 35.6424L47.2708 36.2287L47.8571 36.7173ZM48.8098 35.5447L49.2984 34.9584L48.7121 34.4698L48.2479 35.0561L48.8098 35.5447ZM49.787 34.3721L50.2511 33.7858L49.6893 33.3216L49.2007 33.8835L49.787 34.3721ZM50.7397 33.1995L51.2283 32.6376L50.642 32.149L50.1534 32.7353L50.7397 33.1995ZM51.7169 32.0513L52.1811 31.465L51.5948 30.9764L51.1306 31.5627L51.7169 32.0513ZM52.6696 30.8787L53.1582 30.2924L52.5719 29.8038L52.0833 30.3901L52.6696 30.8787ZM53.6224 29.7061L54.111 29.1442L53.5247 28.6556L53.0605 29.2419L53.6224 29.7061ZM54.5996 28.5579L55.0637 27.9716L54.5018 27.483L54.0133 28.0693L54.5996 28.5579ZM55.5523 27.3853L56.0409 26.799L55.4546 26.3104L54.966 26.8967L55.5523 27.3853ZM56.5295 26.2127L56.9936 25.6264L56.4073 25.1623L55.9432 25.7241L56.5295 26.2127ZM57.4822 25.0645L57.9708 24.4782L57.3845 23.9896L56.8959 24.5759L57.4822 25.0645ZM58.435 23.8919L58.9236 23.3056L58.3372 22.817L57.8731 23.4033L58.435 23.8919ZM59.4121 22.7193L59.8763 22.133L59.3144 21.6444L58.8258 22.2307L59.4121 22.7193ZM60.3649 21.5467L60.8535 20.9848L60.2672 20.4962L59.7786 21.0825L60.3649 21.5467ZM61.3421 20.3985L61.8062 19.8122L61.2199 19.3236L60.7557 19.9099L61.3421 20.3985ZM62.2948 19.2259L62.7834 18.6396L62.1971 18.151L61.7085 18.7373L62.2948 19.2259ZM63.2475 18.0533L63.7361 17.467L63.1498 17.0029L62.6857 17.5892L63.2475 18.0533ZM64.2247 16.9051L64.6889 16.3188L64.127 15.8303L63.6384 16.4166L64.2247 16.9051ZM65.1775 15.7325L65.666 15.1462L65.0797 14.6576L64.5912 15.2439L65.1775 15.7325ZM66.1302 14.5599L66.6188 13.9736L66.0325 13.5095L65.5683 14.0713L66.1302 14.5599ZM67.1074 13.4117L67.596 12.8254L67.0097 12.3369L66.5211 12.9232L67.1074 13.4117ZM68.0601 12.2391L68.5487 11.6528L67.9624 11.1642L67.4738 11.7505L68.0601 12.2391Z" fill="#F4F4F4"/>
<path d="M69.0373 11.0665L69.2816 10.7733L68.9884 10.529L68.7441 10.8222L69.0373 11.0665L69.5015 10.4802L68.9396 9.99158L68.451 10.5779L69.0373 11.0665Z" fill="#F4F4F4"/>
<path d="M69.5992 11.5551L70.1855 12.0192L70.6741 11.4573L70.0878 10.9688L69.5992 11.5551ZM70.7718 12.5078L71.3337 12.9964L71.8223 12.4101L71.2359 11.9215L70.7718 12.5078ZM71.92 13.4605L72.5063 13.9491L72.9704 13.3628L72.4086 12.8987L71.92 13.4605ZM73.0681 14.4377L73.6544 14.9019L74.143 14.3156L73.5567 13.8514L73.0681 14.4377ZM74.2408 15.3905L74.8026 15.879L75.2912 15.2927L74.7049 14.8042L74.2408 15.3905ZM75.3889 16.3432L75.9752 16.8318L76.4394 16.2455L75.8775 15.7813L75.3889 16.3432ZM76.5371 17.3204L77.1234 17.7845L77.612 17.1982L77.0257 16.7341L76.5371 17.3204ZM77.7097 18.2731L78.2716 18.7617L78.7602 18.1754L78.1739 17.6868L77.7097 18.2731ZM78.8579 19.2259L79.4198 19.7144L79.9084 19.1281L79.3465 18.6396L78.8579 19.2259ZM80.0061 20.203L80.5924 20.6672L81.081 20.0809L80.4947 19.6167L80.0061 20.203ZM81.1543 21.1558L81.7406 21.6444L82.2291 21.0581L81.6428 20.5695L81.1543 21.1558ZM82.3269 22.1085L82.8887 22.5971L83.3773 22.0108L82.8154 21.5222L82.3269 22.1085ZM83.475 23.0857L84.0613 23.5499L84.5499 22.9635L83.9636 22.4994L83.475 23.0857ZM84.6232 24.0384L85.2095 24.527L85.6981 23.9407L85.1118 23.4521L84.6232 24.0384ZM85.7958 24.9912L86.3577 25.4798L86.8463 24.8935L86.2844 24.4049L85.7958 24.9912ZM86.944 25.9683L87.5303 26.4325L87.9945 25.8462L87.4326 25.382L86.944 25.9683ZM88.0922 26.9211L88.6785 27.4097L89.1671 26.8234L88.5808 26.3348L88.0922 26.9211ZM89.2648 27.8738L89.8267 28.3624L90.3153 27.7761L89.7289 27.2875L89.2648 27.8738ZM90.413 28.851L90.9993 29.3152L91.4634 28.7289L90.9016 28.2647L90.413 28.851ZM91.5611 29.8038L92.1474 30.2923L92.636 29.706L92.0497 29.2175L91.5611 29.8038ZM92.7338 30.7565L93.2956 31.2451L93.7842 30.6588L93.1979 30.1702L92.7338 30.7565ZM93.8819 31.7092L94.4682 32.1978L94.9324 31.6115L94.3705 31.1474L93.8819 31.7092ZM95.0301 32.6864L95.6164 33.175L96.105 32.5887L95.5187 32.1001L95.0301 32.6864ZM96.2027 33.6392L96.7646 34.1277L97.2532 33.5414L96.6669 33.0529L96.2027 33.6392ZM97.3509 34.5919L97.9372 35.0805L98.4014 34.4942L97.8395 34.03L97.3509 34.5919ZM98.4991 35.5691L99.0854 36.0332L99.574 35.4714L98.9877 34.9828L98.4991 35.5691ZM99.6717 36.5218L100.234 37.0104L100.722 36.4241L100.136 35.9355L99.6717 36.5218ZM100.82 37.4746L101.406 37.9632L101.87 37.3768L101.308 36.9127L100.82 37.4746ZM101.968 38.4517L102.554 38.9159L103.043 38.354L102.457 37.8654L101.968 38.4517ZM103.141 39.4045L103.703 39.8931L104.191 39.3068L103.605 38.8182L103.141 39.4045ZM104.289 40.3572L104.875 40.8458L105.339 40.2595L104.777 39.7709L104.289 40.3572ZM105.437 41.3344L106.023 41.7985L106.512 41.2122L105.926 40.7481L105.437 41.3344ZM106.585 42.2871L107.171 42.7757L107.66 42.1894L107.074 41.7008L106.585 42.2871ZM107.758 43.2399L108.32 43.7285L108.808 43.1422L108.222 42.6536L107.758 43.2399ZM108.906 44.2171L109.492 44.6812L109.956 44.0949L109.395 43.6308L108.906 44.2171ZM110.054 45.1698L110.64 45.6584L111.129 45.0721L110.543 44.5835L110.054 45.1698ZM111.227 46.1225L111.789 46.6111L112.277 46.0248L111.691 45.5362L111.227 46.1225ZM112.375 47.0997L112.961 47.5639L113.425 46.9776L112.864 46.5134L112.375 47.0997ZM113.523 48.0525L114.109 48.5411L114.598 47.9548L114.012 47.4662L113.523 48.0525ZM114.696 49.0052L115.258 49.4938L115.746 48.9075L115.16 48.4189L114.696 49.0052ZM115.844 49.9824L116.43 50.4465L116.894 49.8602L116.332 49.3961L115.844 49.9824ZM116.992 50.9351L117.578 51.4237L118.067 50.8374L117.481 50.3488L116.992 50.9351ZM118.165 51.8879L118.727 52.3765L119.215 51.7901L118.629 51.3016L118.165 51.8879ZM119.313 52.865L119.899 53.3292L120.363 52.7429L119.801 52.2787L119.313 52.865ZM120.461 53.8178L121.047 54.3064L121.536 53.7201L120.95 53.2315L120.461 53.8178ZM121.634 54.7705L122.196 55.2591L122.684 54.6728L122.098 54.1842L121.634 54.7705ZM122.782 55.7233L123.368 56.2119L123.832 55.6256L123.27 55.1614L122.782 55.7233ZM123.93 56.7004L124.516 57.1646L125.005 56.6027L124.419 56.1141L123.93 56.7004ZM125.103 57.6532L125.664 58.1418L126.153 57.5555L125.567 57.0669L125.103 57.6532ZM126.251 58.6059L126.837 59.0945L127.301 58.5082L126.739 58.0441L126.251 58.6059ZM127.399 59.5831L127.985 60.0473L128.474 59.4854L127.888 58.9968L127.399 59.5831ZM128.572 60.5358L129.133 61.0244L129.622 60.4381L129.036 59.9495L128.572 60.5358ZM129.72 61.4886L130.306 61.9772L130.77 61.3909L130.208 60.9267L129.72 61.4886ZM130.868 62.4658L131.454 62.9299L131.943 62.368L131.357 61.8795L130.868 62.4658ZM132.041 63.4185L132.602 63.9071L133.091 63.3208L132.505 62.8322L132.041 63.4185ZM133.189 64.3713L133.751 64.8598L134.239 64.2735L133.677 63.785L133.189 64.3713ZM134.337 65.3484L134.923 65.8126L135.387 65.2263L134.825 64.7621L134.337 65.3484ZM135.485 66.3012L136.071 66.7898L136.56 66.2034L135.974 65.7149L135.485 66.3012ZM136.658 67.2539L137.22 67.7425L137.708 67.1562L137.122 66.6676L136.658 67.2539ZM137.806 68.2311L138.392 68.6952L138.856 68.1089L138.294 67.6448L137.806 68.2311ZM138.954 69.1838L139.54 69.6724L140.029 69.0861L139.443 68.5975L138.954 69.1838ZM140.127 70.1366L140.689 70.6252L141.177 70.0389L140.591 69.5503L140.127 70.1366ZM141.275 71.1137L141.861 71.5779L142.325 70.9916L141.763 70.5274L141.275 71.1137ZM142.423 72.0665L143.009 72.5551L143.498 71.9688L142.912 71.4802L142.423 72.0665ZM143.596 73.0192L144.157 73.5078L144.646 72.9215L144.06 72.4329L143.596 73.0192ZM144.744 73.9964L145.33 74.4606L145.794 73.8743L145.232 73.4101L144.744 73.9964ZM145.892 74.9491L146.478 75.4377L146.967 74.8514L146.381 74.3628L145.892 74.9491ZM147.065 75.9019L147.626 76.3905L148.115 75.8042L147.529 75.3156L147.065 75.9019ZM148.213 76.8791L148.799 77.3432L149.263 76.7569L148.701 76.2928L148.213 76.8791ZM149.361 77.8318L149.947 78.3204L150.436 77.7341L149.85 77.2455L149.361 77.8318ZM150.534 78.7846L151.095 79.2731L151.584 78.6868L150.998 78.1982L150.534 78.7846ZM151.682 79.7617L152.268 80.2259L152.732 79.6396L152.17 79.1754L151.682 79.7617ZM152.83 80.7145L153.416 81.1786L153.905 80.6168L153.318 80.1282L152.83 80.7145ZM153.978 81.6672L154.564 82.1558L155.053 81.5695L154.467 81.0809L153.978 81.6672ZM155.151 82.62L155.713 83.1085L156.201 82.5222L155.639 82.0581L155.151 82.62ZM156.299 83.5971L156.885 84.0613L157.374 83.4994L156.787 83.0108L156.299 83.5971ZM157.447 84.5499L158.033 85.0385L158.522 84.4522L157.936 83.9636L157.447 84.5499ZM158.62 85.5026L159.182 85.9912L159.67 85.4049L159.108 84.9407L158.62 85.5026ZM159.768 86.4798L160.354 86.9439L160.818 86.3576L160.256 85.8935L159.768 86.4798ZM160.916 87.4325L161.502 87.9211L161.991 87.3348L161.405 86.8462" fill="#F4F4F4"/>
<path d="M114.5 51.0329C132.871 66.3012 135.436 93.6132 120.192 112.057C104.973 130.477 77.734 133.042 59.3632 117.774C40.9923 102.506 38.4272 75.1935 53.6467 56.7494C68.8662 38.3052 96.1049 35.7402 114.5 51.0329Z" fill="#F4F4F4"/>
<path d="M104.338 84.7454C105.608 85.8202 107.025 86.26 108.613 86.1378C110.176 85.9913 111.495 85.2828 112.522 84.0125C113.548 82.791 113.963 81.3741 113.816 79.7618C113.67 78.1494 112.961 76.8303 111.715 75.8042C110.518 74.8026 109.101 74.3629 107.538 74.5095C105.95 74.656 104.631 75.3645 103.605 76.6104C102.579 77.8563 102.115 79.2732 102.261 80.8367C102.383 82.4001 103.092 83.7193 104.338 84.7454ZM99.1342 91.0481C96.1294 88.5319 94.4682 85.4049 94.1262 81.594C93.7842 77.8074 94.8835 74.3873 97.3753 71.3825C99.8183 68.4021 102.945 66.7409 106.781 66.3745C110.592 66.0325 113.963 67.0585 116.919 69.5259C119.875 71.9688 121.536 75.1446 121.927 78.98C122.293 82.8399 121.267 86.26 118.824 89.1915C116.332 92.2207 113.181 93.9063 109.37 94.2728C105.584 94.6392 102.163 93.5399 99.1342 91.0481ZM95.9829 116.87L73.8743 56.7982L77.7097 52.1322L99.8183 112.204L95.9829 116.87ZM62.0749 92.9536C63.3453 94.0041 64.7377 94.4438 66.3012 94.3217C67.8647 94.1751 69.1839 93.4666 70.2344 92.2207C71.2604 90.9748 71.7001 89.5335 71.5535 87.9456C71.407 86.3577 70.6985 85.0385 69.4526 84.0125C68.2311 82.9864 66.8387 82.5467 65.2263 82.6933C63.6384 82.8399 62.3437 83.5483 61.3176 84.7942C60.2672 86.0645 59.803 87.4814 59.9496 89.0449C60.0962 90.6084 60.8046 91.9031 62.0749 92.9536ZM56.9204 99.2808C53.9156 96.789 52.2544 93.6376 51.8879 89.8022C51.5215 85.9912 52.5719 82.5711 55.0637 79.5663C57.5067 76.586 60.658 74.9248 64.4935 74.5828C68.3289 74.2407 71.7245 75.2912 74.7049 77.7586C77.6609 80.2015 79.3221 83.3529 79.6641 87.1883C80.0305 91.0237 78.98 94.4194 76.5127 97.3997C74.0209 100.429 70.8695 102.115 67.1074 102.481C63.3453 102.847 59.9496 101.773 56.9204 99.2808Z" fill="#FFBD59"/>
</svg>
