<svg id="Capa_1" enable-background="new 0 0 512 512" height="512" viewBox="0 0 512 512" width="512" xmlns="http://www.w3.org/2000/svg"><g><path d="m166 361c-16.553 0-30 13.462-30 30v91c0 16.538 13.447 30 30 30h15l30-26.526v-107.579l-30-25.252z" fill="#ffd9b3"/><path d="m346 361-15-8.934-30 32.934v97.632l30 29.368h15c16.553 0 30-13.462 30-30v-91c0-16.538-13.447-30-30-30z" fill="#fb9"/><path d="m320.816 346h-64.816-63.078l-11.922 6.643v159.357h75 75v-159.934z" fill="#d96c57"/><path d="m331 352.066-10.184-6.066h-64.816v166h75z" fill="#bf4d4d"/><path d="m286 181h-30-30l-15.901 30v120l15.901 30h30 30l15-30v-120z" fill="#4d5e80"/><path d="m301 331v-120l-15-30h-30v180h30z" fill="#3d4566"/><path d="m497 181c-8.291 0-15 6.709-15 15v135h30v-135c0-8.291-6.709-15-15-15z" fill="#ff884d"/><path d="m15 181c-8.291 0-15 6.709-15 15v135h30v-135c0-8.291-6.709-15-15-15z" fill="#ffb366"/><g><path d="m426.395 446.605c-5.859-5.859-5.859-15.352 0-21.211l30-30c5.859-5.859 15.352-5.859 21.211 0s5.859 15.352 0 21.211l-30 30c-5.86 5.86-15.352 5.86-21.211 0z" fill="#ffb366"/></g><g><path d="m65.395 446.605-30-30c-5.859-5.859-5.859-15.352 0-21.211s15.352-5.859 21.211 0l30 30c5.859 5.859 5.859 15.352 0 21.211-5.86 5.86-15.352 5.86-21.211 0z" fill="#ffdc99"/></g><g><path d="m166 181c-11.748 0-22.471 6.929-27.92 19.146l-33.223 100.854h-44.857l-30 32.842 30 27.158h91l15-30 15 30h45v-180z" fill="#f3f5f9"/><g fill="#d7dce6"><path d="m407.143 301-33.779-102.393c-4.923-10.693-15.645-17.607-27.364-17.607h-60v180h45l15-30 15 30h91l30-30-30-30z"/><path d="m166 271c-8.284 0-15 6.714-15 15v75h30v-75c0-8.286-6.716-15-15-15z"/></g></g><path d="m30 301c-16.553 0-30 13.462-30 30s13.447 30 30 30h30v-60z" fill="#ffd9b3"/><path d="m482 301h-30v60h30c16.553 0 30-13.462 30-30s-13.447-30-30-30z" fill="#fb9"/><path d="m361 286c0-8.286-6.716-15-15-15s-15 6.714-15 15v75h30z" fill="#b8bfcc"/></g><path d="m317.216 75h-136.212c0-7.85 1.21-15.42 3.46-22.54 9.591-30.37 38.03-52.46 71.54-52.46 36.23 0 66.53 25.81 73.49 60 .01.049.02.097.03.146 1.555 7.695-4.457 14.854-12.308 14.854z" fill="#4d5e80"/><path d="m317.216 75c7.851 0 13.863-7.159 12.308-14.854-.01-.049-.02-.097-.029-.146-6.96-34.19-37.26-60-73.49-60v75z" fill="#3d4566"/><path d="m316.004 75c8.284 0 15 6.716 15 15v15c0 20.03-7.76 39-21.85 53.41-14.24 14.57-33.11 22.59-53.15 22.59s-38.91-8.02-53.15-22.59c-14.09-14.41-21.85-33.38-21.85-53.41v-30z" fill="#ffd9b3"/><path d="m316.004 75h-60v106c20.04 0 38.91-8.02 53.15-22.59 14.09-14.41 21.85-33.38 21.85-53.41v-15c0-8.284-6.715-15-15-15z" fill="#fb9"/><path d="m331.004 75v15h-131.46l-18.54 9.27-38.29 19.15c-2.16 1.07-4.44 1.58-6.7 1.58-5.5 0-10.8-3.04-13.43-8.29-3.7-7.41-.7-16.42 6.71-20.13l33.17-16.58-33.17-16.58c-7.41-3.71-10.41-12.72-6.71-20.13 3.71-7.41 12.72-10.41 20.13-6.71l41.75 20.88 15.08 7.54h129.95c.99 4.85 1.51 9.87 1.51 15z" fill="#d7dce6"/><path d="m256.004 60v30h75v-15c0-5.13-.52-10.15-1.51-15z" fill="#b8bfcc"/></svg>